<svg xmlns="http://www.w3.org/2000/svg" xmlns:xlink="http://www.w3.org/1999/xlink" width="832.972" height="832.972" viewBox="0 0 832.972 832.972">
  <defs>
    <clipPath id="clip-path">
      <rect width="757" height="421" fill="none"/>
    </clipPath>
  </defs>
  <g id="Repeat_Grid_3" data-name="Repeat Grid 3" transform="translate(297.692) rotate(45)" clip-path="url(#clip-path)">
    <g transform="translate(78 -808)">
      <rect id="Rectangle_53" data-name="Rectangle 53" width="504" height="1" transform="translate(-78 808)" fill="orange"/>
    </g>
    <g transform="translate(602 -808)">
      <rect id="Rectangle_53-2" data-name="Rectangle 53" width="504" height="1" transform="translate(-78 808)" fill="orange"/>
    </g>
    <g transform="translate(78 -787)">
      <rect id="Rectangle_53-3" data-name="Rectangle 53" width="504" height="1" transform="translate(-78 808)" fill="orange"/>
    </g>
    <g transform="translate(602 -787)">
      <rect id="Rectangle_53-4" data-name="Rectangle 53" width="504" height="1" transform="translate(-78 808)" fill="orange"/>
    </g>
    <g transform="translate(78 -766)">
      <rect id="Rectangle_53-5" data-name="Rectangle 53" width="504" height="1" transform="translate(-78 808)" fill="orange"/>
    </g>
    <g transform="translate(602 -766)">
      <rect id="Rectangle_53-6" data-name="Rectangle 53" width="504" height="1" transform="translate(-78 808)" fill="orange"/>
    </g>
    <g transform="translate(78 -745)">
      <rect id="Rectangle_53-7" data-name="Rectangle 53" width="504" height="1" transform="translate(-78 808)" fill="orange"/>
    </g>
    <g transform="translate(602 -745)">
      <rect id="Rectangle_53-8" data-name="Rectangle 53" width="504" height="1" transform="translate(-78 808)" fill="orange"/>
    </g>
    <g transform="translate(78 -724)">
      <rect id="Rectangle_53-9" data-name="Rectangle 53" width="504" height="1" transform="translate(-78 808)" fill="orange"/>
    </g>
    <g transform="translate(602 -724)">
      <rect id="Rectangle_53-10" data-name="Rectangle 53" width="504" height="1" transform="translate(-78 808)" fill="orange"/>
    </g>
    <g transform="translate(78 -703)">
      <rect id="Rectangle_53-11" data-name="Rectangle 53" width="504" height="1" transform="translate(-78 808)" fill="orange"/>
    </g>
    <g transform="translate(602 -703)">
      <rect id="Rectangle_53-12" data-name="Rectangle 53" width="504" height="1" transform="translate(-78 808)" fill="orange"/>
    </g>
    <g transform="translate(78 -682)">
      <rect id="Rectangle_53-13" data-name="Rectangle 53" width="504" height="1" transform="translate(-78 808)" fill="orange"/>
    </g>
    <g transform="translate(602 -682)">
      <rect id="Rectangle_53-14" data-name="Rectangle 53" width="504" height="1" transform="translate(-78 808)" fill="orange"/>
    </g>
    <g transform="translate(78 -661)">
      <rect id="Rectangle_53-15" data-name="Rectangle 53" width="504" height="1" transform="translate(-78 808)" fill="orange"/>
    </g>
    <g transform="translate(602 -661)">
      <rect id="Rectangle_53-16" data-name="Rectangle 53" width="504" height="1" transform="translate(-78 808)" fill="orange"/>
    </g>
    <g transform="translate(78 -640)">
      <rect id="Rectangle_53-17" data-name="Rectangle 53" width="504" height="1" transform="translate(-78 808)" fill="orange"/>
    </g>
    <g transform="translate(602 -640)">
      <rect id="Rectangle_53-18" data-name="Rectangle 53" width="504" height="1" transform="translate(-78 808)" fill="orange"/>
    </g>
    <g transform="translate(78 -619)">
      <rect id="Rectangle_53-19" data-name="Rectangle 53" width="504" height="1" transform="translate(-78 808)" fill="orange"/>
    </g>
    <g transform="translate(602 -619)">
      <rect id="Rectangle_53-20" data-name="Rectangle 53" width="504" height="1" transform="translate(-78 808)" fill="orange"/>
    </g>
    <g transform="translate(78 -598)">
      <rect id="Rectangle_53-21" data-name="Rectangle 53" width="504" height="1" transform="translate(-78 808)" fill="orange"/>
    </g>
    <g transform="translate(602 -598)">
      <rect id="Rectangle_53-22" data-name="Rectangle 53" width="504" height="1" transform="translate(-78 808)" fill="orange"/>
    </g>
    <g transform="translate(78 -577)">
      <rect id="Rectangle_53-23" data-name="Rectangle 53" width="504" height="1" transform="translate(-78 808)" fill="orange"/>
    </g>
    <g transform="translate(602 -577)">
      <rect id="Rectangle_53-24" data-name="Rectangle 53" width="504" height="1" transform="translate(-78 808)" fill="orange"/>
    </g>
    <g transform="translate(78 -556)">
      <rect id="Rectangle_53-25" data-name="Rectangle 53" width="504" height="1" transform="translate(-78 808)" fill="orange"/>
    </g>
    <g transform="translate(602 -556)">
      <rect id="Rectangle_53-26" data-name="Rectangle 53" width="504" height="1" transform="translate(-78 808)" fill="orange"/>
    </g>
    <g transform="translate(78 -535)">
      <rect id="Rectangle_53-27" data-name="Rectangle 53" width="504" height="1" transform="translate(-78 808)" fill="orange"/>
    </g>
    <g transform="translate(602 -535)">
      <rect id="Rectangle_53-28" data-name="Rectangle 53" width="504" height="1" transform="translate(-78 808)" fill="orange"/>
    </g>
    <g transform="translate(78 -514)">
      <rect id="Rectangle_53-29" data-name="Rectangle 53" width="504" height="1" transform="translate(-78 808)" fill="orange"/>
    </g>
    <g transform="translate(602 -514)">
      <rect id="Rectangle_53-30" data-name="Rectangle 53" width="504" height="1" transform="translate(-78 808)" fill="orange"/>
    </g>
    <g transform="translate(78 -493)">
      <rect id="Rectangle_53-31" data-name="Rectangle 53" width="504" height="1" transform="translate(-78 808)" fill="orange"/>
    </g>
    <g transform="translate(602 -493)">
      <rect id="Rectangle_53-32" data-name="Rectangle 53" width="504" height="1" transform="translate(-78 808)" fill="orange"/>
    </g>
    <g transform="translate(78 -472)">
      <rect id="Rectangle_53-33" data-name="Rectangle 53" width="504" height="1" transform="translate(-78 808)" fill="orange"/>
    </g>
    <g transform="translate(602 -472)">
      <rect id="Rectangle_53-34" data-name="Rectangle 53" width="504" height="1" transform="translate(-78 808)" fill="orange"/>
    </g>
    <g transform="translate(78 -451)">
      <rect id="Rectangle_53-35" data-name="Rectangle 53" width="504" height="1" transform="translate(-78 808)" fill="orange"/>
    </g>
    <g transform="translate(602 -451)">
      <rect id="Rectangle_53-36" data-name="Rectangle 53" width="504" height="1" transform="translate(-78 808)" fill="orange"/>
    </g>
    <g transform="translate(78 -430)">
      <rect id="Rectangle_53-37" data-name="Rectangle 53" width="504" height="1" transform="translate(-78 808)" fill="orange"/>
    </g>
    <g transform="translate(602 -430)">
      <rect id="Rectangle_53-38" data-name="Rectangle 53" width="504" height="1" transform="translate(-78 808)" fill="orange"/>
    </g>
    <g transform="translate(78 -409)">
      <rect id="Rectangle_53-39" data-name="Rectangle 53" width="504" height="1" transform="translate(-78 808)" fill="orange"/>
    </g>
    <g transform="translate(602 -409)">
      <rect id="Rectangle_53-40" data-name="Rectangle 53" width="504" height="1" transform="translate(-78 808)" fill="orange"/>
    </g>
    <g transform="translate(78 -388)">
      <rect id="Rectangle_53-41" data-name="Rectangle 53" width="504" height="1" transform="translate(-78 808)" fill="orange"/>
    </g>
    <g transform="translate(602 -388)">
      <rect id="Rectangle_53-42" data-name="Rectangle 53" width="504" height="1" transform="translate(-78 808)" fill="orange"/>
    </g>
  </g>
</svg>
