<svg xmlns="http://www.w3.org/2000/svg" width="469.915" height="395.974" viewBox="0 0 469.915 395.974">
  <path id="blob" d="M289.514-25.388c43.337,11.343,87.837,40.719,94.236,78.239,6.108,37.52-25.886,83.184-47.7,126.521-22.1,43.046-33.739,84.056-60.788,111.687-27.34,27.631-69.8,42.174-107.906,36.066-37.811-6.108-71.55-33.157-117.214-54.68C4.479,250.631-53.11,234.343-74.633,198.86c-21.523-35.775-6.98-90.164,10.471-143.681C-46.42,1.371-26.351-51.274,12.041-64.071S106.568-50.11,155.722-39.93C204.585-29.75,246.468-36.731,289.514-25.388Z" transform="translate(85.403 67.468)" fill="rgba(155,158,165,0.15)"/>
</svg>
