<svg xmlns="http://www.w3.org/2000/svg" xmlns:xlink="http://www.w3.org/1999/xlink" width="500" height="421.325" viewBox="0 0 500 421.325">
  <defs>
    <linearGradient id="linear-gradient" x1="0.654" y1="0.411" x2="0.992" y2="0.478" gradientUnits="objectBoundingBox">
      <stop offset="0" stop-color="#020815" stop-opacity="0.027"/>
      <stop offset="1" stop-color="#555b64" stop-opacity="0"/>
    </linearGradient>
  </defs>
  <path id="blob" d="M313.517-22.694c46.112,12.069,93.461,43.326,100.269,83.248,6.5,39.922-27.543,88.509-50.754,134.621-23.52,45.8-35.9,89.438-64.68,118.838-29.091,29.4-74.274,44.874-114.815,38.375-40.232-6.5-76.13-35.28-124.718-58.181C10.234,271-51.042,253.666-73.943,215.91c-22.9-38.065-7.427-95.937,11.141-152.88C-43.924,5.778-22.571-50.237,18.28-63.854S118.859-49,171.16-38.167C223.151-27.336,267.715-34.763,313.517-22.694Z" transform="translate(85.403 67.468)" fill="url(#linear-gradient)"/>
</svg>
