<svg xmlns="http://www.w3.org/2000/svg" width="947.216" height="858.205" viewBox="0 0 947.216 858.205"><path d="M552.87,4.171c73.778,19.311,149.538,69.322,160.431,133.2,10.4,63.875-44.069,141.615-81.206,215.393-37.632,73.283-57.438,143.1-103.488,190.14-46.545,47.04-118.838,71.8-183.7,61.4-64.37-10.4-121.809-56.448-199.549-93.09C67.615,474.075-30.426,446.347-67.067,385.937c-36.642-60.9-11.884-153.5,17.826-244.608C-19.037,49.725,15.129-39.9,80.49-61.685S241.416-37.917,325.1-20.587C408.284-3.256,479.587-15.14,552.87,4.171Z" transform="matrix(0.966, -0.259, 0.259, 0.966, 99.955, 250.12)" fill="rgba(2,8,21,0.06)"/></svg>