<svg xmlns="http://www.w3.org/2000/svg" width="947.216" height="858.205" viewBox="0 0 947.216 858.205"><g transform="translate(307 -3985)" opacity="0.698"><path d="M552.87,4.171c73.778,19.311,149.538,69.322,160.431,133.2,10.4,63.875-44.069,141.615-81.206,215.393-37.632,73.283-57.438,143.1-103.488,190.14-46.545,47.04-118.838,71.8-183.7,61.4-64.37-10.4-121.809-56.448-199.549-93.09C67.615,474.075-30.426,446.347-67.067,385.937c-36.642-60.9-11.884-153.5,17.826-244.608C-19.037,49.725,15.129-39.9,80.49-61.685S241.416-37.917,325.1-20.587C408.284-3.256,479.587-15.14,552.87,4.171Z" transform="matrix(0.966, -0.259, 0.259, 0.966, -207.045, 4235.12)" fill="rgba(2,8,21,0.06)"/><path d="M473.086-4.784c64.556,16.9,130.845,60.657,140.377,116.548,9.1,55.891-38.56,123.913-71.055,188.469-32.928,64.123-50.259,125.213-90.552,166.373-40.727,41.16-103.983,62.823-160.74,53.725-56.324-9.1-106.583-49.392-174.6-81.453C48.488,406.383-37.3,382.12-69.359,329.262c-32.061-53.291-10.4-134.312,15.6-214.032C-27.333,35.076,2.562-43.344,59.753-62.408s140.81,20.8,214.032,35.961C346.573-11.283,408.963-21.681,473.086-4.784Z" transform="matrix(0.966, -0.259, 0.259, 0.966, -148.045, 4296.238)" fill="rgba(2,8,21,0.06)"/><path d="M393.3-13.739C448.635.745,505.455,38.253,513.625,86.159c7.8,47.906-33.052,106.211-60.9,161.545C424.5,302.667,409.642,355.03,375.1,390.31c-34.909,35.28-89.128,53.848-137.778,46.05-48.278-7.8-91.357-42.336-149.661-69.817C29.361,338.69-44.17,317.893-71.651,272.586-99.133,226.908-80.564,157.462-58.282,89.13-35.629,20.427-10-46.791,39.016-63.131S159.711-45.305,222.472-32.307C284.862-19.309,338.339-28.222,393.3-13.739Z" transform="matrix(0.966, -0.259, 0.259, 0.966, -89.045, 4359.356)" fill="rgba(2,8,21,0.06)"/></g></svg>