<svg id="bg" xmlns="http://www.w3.org/2000/svg" width="350" height="317.11" viewBox="0 0 350 317.11">
  <path id="blob" d="M235.844,26.471c27.261,7.136,55.255,25.615,59.28,49.217,3.842,23.6-16.284,52.327-30.006,79.589-13.905,27.078-21.224,52.876-38.239,70.258-17.2,17.381-43.911,26.53-67.879,22.687-23.785-3.842-45.009-20.858-73.734-34.4C56.541,200.1,20.314,189.856,6.775,167.535c-13.539-22.5-4.391-56.718,6.587-90.384C24.522,43.3,37.147,10.187,61.3,2.137s59.463,8.782,90.384,15.186C182.419,23.726,208.766,19.335,235.844,26.471Z" transform="matrix(0.966, -0.259, 0.259, 0.966, 0, 76.508)" fill="rgba(2,8,21,0.06)"/>
  <path id="blob-2" data-name="blob" d="M229.948,25.809c26.58,6.957,53.873,24.974,57.8,47.987,3.746,23.012-15.877,51.019-29.256,77.6-13.558,26.4-20.693,51.554-37.283,68.5-16.769,16.947-42.813,25.866-66.182,22.12-23.191-3.746-43.884-20.336-71.891-33.537C55.127,195.1,19.806,185.11,6.606,163.347c-13.2-21.942-4.281-55.3,6.422-88.124,10.882-33,23.191-65.29,46.738-73.139s57.976,8.563,88.124,14.806C177.859,23.133,203.547,18.852,229.948,25.809Z" transform="matrix(0.966, -0.259, 0.259, 0.966, 4.375, 78.559)" fill="rgba(2,8,21,0)" stroke="#dd4c56" stroke-width="5" opacity="0.55"/>
</svg>
