<svg xmlns="http://www.w3.org/2000/svg" width="20.349" height="32" viewBox="0 0 20.349 32"><path d="M15.175,25.71a1.454,1.454,0,1,0,1.454,1.454A1.454,1.454,0,0,0,15.175,25.71ZM23.9,1H6.454A1.454,1.454,0,0,0,5,2.454V15.535A4.361,4.361,0,0,0,9.361,19.9h1.454V23.34a5.814,5.814,0,1,0,8.721,0V19.9h1.454a4.361,4.361,0,0,0,4.361-4.361V2.454A1.454,1.454,0,0,0,23.9,1ZM15.175,30.07a2.907,2.907,0,0,1-1.933-5.058,1.453,1.453,0,0,0,.48-1.076V19.9h2.907v4.041a1.453,1.453,0,0,0,.48,1.076,2.907,2.907,0,0,1-1.933,5.058Zm7.268-14.535a1.454,1.454,0,0,1-1.454,1.454H9.361a1.454,1.454,0,0,1-1.454-1.454V14.082H22.442Zm0-4.361H7.907V3.907H22.442Z" transform="translate(-5 -1)" fill="#fe1554"/></svg>