<svg xmlns="http://www.w3.org/2000/svg" width="247.999" height="247.999" viewBox="0 0 247.999 247.999"><path d="M245.244,78.257a2.756,2.756,0,1,0-2.756-2.756A2.755,2.755,0,0,0,245.244,78.257Z" fill="rgba(0,0,0,0.53)"/><path d="M245.244,102.507a2.755,2.755,0,1,0-2.756-2.755A2.755,2.755,0,0,0,245.244,102.507Z" fill="rgba(0,0,0,0.53)"/><path d="M245.244,126.755A2.755,2.755,0,1,0,242.488,124,2.754,2.754,0,0,0,245.244,126.755Z" fill="rgba(0,0,0,0.53)"/><path d="M245.244,151.005a2.756,2.756,0,1,0-2.756-2.755A2.754,2.754,0,0,0,245.244,151.005Z" fill="rgba(0,0,0,0.53)"/><path d="M245.244,175.255a2.756,2.756,0,1,0-2.756-2.755A2.754,2.754,0,0,0,245.244,175.255Z" fill="rgba(0,0,0,0.53)"/><path d="M245.244,199.5a2.756,2.756,0,1,0-2.756-2.755A2.754,2.754,0,0,0,245.244,199.5Z" fill="rgba(0,0,0,0.53)"/><path d="M221,54.009a2.756,2.756,0,1,0-2.756-2.756A2.755,2.755,0,0,0,221,54.009Z" fill="rgba(0,0,0,0.53)"/><path d="M221,78.257a2.756,2.756,0,1,0-2.756-2.756A2.755,2.755,0,0,0,221,78.257Z" fill="rgba(0,0,0,0.53)"/><path d="M221,102.507a2.755,2.755,0,1,0-2.756-2.755A2.755,2.755,0,0,0,221,102.507Z" fill="rgba(0,0,0,0.53)"/><path d="M221,126.755A2.755,2.755,0,1,0,218.242,124,2.754,2.754,0,0,0,221,126.755Z" fill="rgba(0,0,0,0.53)"/><path d="M221,151.005a2.756,2.756,0,1,0-2.756-2.755A2.754,2.754,0,0,0,221,151.005Z" fill="rgba(0,0,0,0.53)"/><path d="M221,175.255a2.756,2.756,0,1,0-2.756-2.755A2.754,2.754,0,0,0,221,175.255Z" fill="rgba(0,0,0,0.53)"/><path d="M221,199.5a2.756,2.756,0,1,0-2.756-2.755A2.754,2.754,0,0,0,221,199.5Z" fill="rgba(0,0,0,0.53)"/><path d="M221,223.751A2.756,2.756,0,1,0,218.242,221,2.754,2.754,0,0,0,221,223.751Z" fill="rgba(0,0,0,0.53)"/><path d="M196.748,29.759A2.756,2.756,0,1,0,193.992,27,2.755,2.755,0,0,0,196.748,29.759Z" fill="rgba(0,0,0,0.53)"/><path d="M196.748,54.009a2.756,2.756,0,1,0-2.756-2.756A2.755,2.755,0,0,0,196.748,54.009Z" fill="rgba(0,0,0,0.53)"/><path d="M196.748,78.257a2.756,2.756,0,1,0-2.756-2.756A2.755,2.755,0,0,0,196.748,78.257Z" fill="rgba(0,0,0,0.53)"/><path d="M196.748,102.507a2.755,2.755,0,1,0-2.756-2.755A2.755,2.755,0,0,0,196.748,102.507Z" fill="rgba(0,0,0,0.53)"/><path d="M196.748,126.755A2.755,2.755,0,1,0,193.992,124,2.754,2.754,0,0,0,196.748,126.755Z" fill="rgba(0,0,0,0.53)"/><path d="M196.748,151.005a2.756,2.756,0,1,0-2.756-2.755A2.754,2.754,0,0,0,196.748,151.005Z" fill="rgba(0,0,0,0.53)"/><path d="M196.748,175.255a2.756,2.756,0,1,0-2.756-2.755A2.754,2.754,0,0,0,196.748,175.255Z" fill="rgba(0,0,0,0.53)"/><path d="M196.748,199.5a2.756,2.756,0,1,0-2.756-2.755A2.754,2.754,0,0,0,196.748,199.5Z" fill="rgba(0,0,0,0.53)"/><path d="M196.748,223.751A2.756,2.756,0,1,0,193.992,221,2.754,2.754,0,0,0,196.748,223.751Z" fill="rgba(0,0,0,0.53)"/><path d="M196.748,248a2.755,2.755,0,1,0-2.756-2.755A2.754,2.754,0,0,0,196.748,248Z" fill="rgba(0,0,0,0.53)"/><path d="M172.5,5.511a2.756,2.756,0,1,0-2.756-2.756A2.755,2.755,0,0,0,172.5,5.511Z" fill="rgba(0,0,0,0.53)"/><path d="M172.5,29.759A2.756,2.756,0,1,0,169.742,27,2.755,2.755,0,0,0,172.5,29.759Z" fill="rgba(0,0,0,0.53)"/><path d="M172.5,54.009a2.756,2.756,0,1,0-2.756-2.756A2.755,2.755,0,0,0,172.5,54.009Z" fill="rgba(0,0,0,0.53)"/><path d="M172.5,78.257a2.756,2.756,0,1,0-2.756-2.756A2.755,2.755,0,0,0,172.5,78.257Z" fill="rgba(0,0,0,0.53)"/><path d="M172.5,102.507a2.755,2.755,0,1,0-2.756-2.755A2.755,2.755,0,0,0,172.5,102.507Z" fill="rgba(0,0,0,0.53)"/><path d="M172.5,126.755A2.755,2.755,0,1,0,169.742,124,2.754,2.754,0,0,0,172.5,126.755Z" fill="rgba(0,0,0,0.53)"/><path d="M172.5,151.005a2.756,2.756,0,1,0-2.756-2.755A2.754,2.754,0,0,0,172.5,151.005Z" fill="rgba(0,0,0,0.53)"/><path d="M172.5,175.255a2.756,2.756,0,1,0-2.756-2.755A2.754,2.754,0,0,0,172.5,175.255Z" fill="rgba(0,0,0,0.53)"/><path d="M172.5,199.5a2.756,2.756,0,1,0-2.756-2.755A2.754,2.754,0,0,0,172.5,199.5Z" fill="rgba(0,0,0,0.53)"/><path d="M172.5,223.751A2.756,2.756,0,1,0,169.742,221,2.754,2.754,0,0,0,172.5,223.751Z" fill="rgba(0,0,0,0.53)"/><path d="M172.5,248a2.755,2.755,0,1,0-2.756-2.755A2.754,2.754,0,0,0,172.5,248Z" fill="rgba(0,0,0,0.53)"/><path d="M148.248,5.511a2.756,2.756,0,1,0-2.756-2.756A2.755,2.755,0,0,0,148.248,5.511Z" fill="rgba(0,0,0,0.53)"/><path d="M148.248,29.759A2.756,2.756,0,1,0,145.492,27,2.755,2.755,0,0,0,148.248,29.759Z" fill="rgba(0,0,0,0.53)"/><path d="M148.248,54.009a2.756,2.756,0,1,0-2.756-2.756A2.755,2.755,0,0,0,148.248,54.009Z" fill="rgba(0,0,0,0.53)"/><path d="M148.248,78.257a2.756,2.756,0,1,0-2.756-2.756A2.755,2.755,0,0,0,148.248,78.257Z" fill="rgba(0,0,0,0.53)"/><path d="M148.248,102.507a2.755,2.755,0,1,0-2.756-2.755A2.755,2.755,0,0,0,148.248,102.507Z" fill="rgba(0,0,0,0.53)"/><path d="M148.248,126.755A2.755,2.755,0,1,0,145.492,124,2.754,2.754,0,0,0,148.248,126.755Z" fill="rgba(0,0,0,0.53)"/><path d="M148.248,151.005a2.756,2.756,0,1,0-2.756-2.755A2.754,2.754,0,0,0,148.248,151.005Z" fill="rgba(0,0,0,0.53)"/><path d="M148.248,175.255a2.756,2.756,0,1,0-2.756-2.755A2.754,2.754,0,0,0,148.248,175.255Z" fill="rgba(0,0,0,0.53)"/><path d="M148.248,199.5a2.756,2.756,0,1,0-2.756-2.755A2.754,2.754,0,0,0,148.248,199.5Z" fill="rgba(0,0,0,0.53)"/><path d="M148.248,223.751A2.756,2.756,0,1,0,145.492,221,2.754,2.754,0,0,0,148.248,223.751Z" fill="rgba(0,0,0,0.53)"/><path d="M148.248,248a2.755,2.755,0,1,0-2.756-2.755A2.754,2.754,0,0,0,148.248,248Z" fill="rgba(0,0,0,0.53)"/><path d="M124,5.511a2.756,2.756,0,1,0-2.756-2.756A2.755,2.755,0,0,0,124,5.511Z" fill="rgba(0,0,0,0.53)"/><path d="M124,29.759A2.756,2.756,0,1,0,121.242,27,2.755,2.755,0,0,0,124,29.759Z" fill="rgba(0,0,0,0.53)"/><path d="M124,54.009a2.756,2.756,0,1,0-2.756-2.756A2.755,2.755,0,0,0,124,54.009Z" fill="rgba(0,0,0,0.53)"/><path d="M124,78.257a2.756,2.756,0,1,0-2.756-2.756A2.755,2.755,0,0,0,124,78.257Z" fill="rgba(0,0,0,0.53)"/><path d="M124,102.507a2.755,2.755,0,1,0-2.756-2.755A2.755,2.755,0,0,0,124,102.507Z" fill="rgba(0,0,0,0.53)"/><path d="M124,126.755A2.755,2.755,0,1,0,121.242,124,2.754,2.754,0,0,0,124,126.755Z" fill="rgba(0,0,0,0.53)"/><path d="M124,151.005a2.756,2.756,0,1,0-2.756-2.755A2.754,2.754,0,0,0,124,151.005Z" fill="rgba(0,0,0,0.53)"/><path d="M124,175.255a2.756,2.756,0,1,0-2.756-2.755A2.754,2.754,0,0,0,124,175.255Z" fill="rgba(0,0,0,0.53)"/><path d="M124,199.5a2.756,2.756,0,1,0-2.756-2.755A2.754,2.754,0,0,0,124,199.5Z" fill="rgba(0,0,0,0.53)"/><path d="M124,223.751A2.756,2.756,0,1,0,121.242,221,2.754,2.754,0,0,0,124,223.751Z" fill="rgba(0,0,0,0.53)"/><path d="M124,248a2.755,2.755,0,1,0-2.756-2.755A2.754,2.754,0,0,0,124,248Z" fill="rgba(0,0,0,0.53)"/><path d="M99.752,5.511A2.756,2.756,0,1,0,97,2.756,2.756,2.756,0,0,0,99.752,5.511Z" fill="rgba(0,0,0,0.53)"/><path d="M99.752,29.759A2.756,2.756,0,1,0,97,27,2.756,2.756,0,0,0,99.752,29.759Z" fill="rgba(0,0,0,0.53)"/><path d="M99.752,54.009A2.756,2.756,0,1,0,97,51.254,2.756,2.756,0,0,0,99.752,54.009Z" fill="rgba(0,0,0,0.53)"/><path d="M99.752,78.257A2.756,2.756,0,1,0,97,75.5,2.756,2.756,0,0,0,99.752,78.257Z" fill="rgba(0,0,0,0.53)"/><path d="M99.752,102.507A2.755,2.755,0,1,0,97,99.752,2.756,2.756,0,0,0,99.752,102.507Z" fill="rgba(0,0,0,0.53)"/><path d="M99.752,126.755A2.755,2.755,0,1,0,97,124,2.755,2.755,0,0,0,99.752,126.755Z" fill="rgba(0,0,0,0.53)"/><path d="M99.752,151.005A2.756,2.756,0,1,0,97,148.25,2.755,2.755,0,0,0,99.752,151.005Z" fill="rgba(0,0,0,0.53)"/><path d="M99.752,175.255A2.756,2.756,0,1,0,97,172.5,2.755,2.755,0,0,0,99.752,175.255Z" fill="rgba(0,0,0,0.53)"/><path d="M99.752,199.5A2.756,2.756,0,1,0,97,196.746,2.755,2.755,0,0,0,99.752,199.5Z" fill="rgba(0,0,0,0.53)"/><path d="M99.752,223.751A2.756,2.756,0,1,0,97,221,2.755,2.755,0,0,0,99.752,223.751Z" fill="rgba(0,0,0,0.53)"/><path d="M99.752,248A2.755,2.755,0,1,0,97,245.244,2.755,2.755,0,0,0,99.752,248Z" fill="rgba(0,0,0,0.53)"/><path d="M75.5,5.511a2.756,2.756,0,1,0-2.756-2.756A2.756,2.756,0,0,0,75.5,5.511Z" fill="rgba(0,0,0,0.53)"/><path d="M75.5,29.759A2.756,2.756,0,1,0,72.746,27,2.756,2.756,0,0,0,75.5,29.759Z" fill="rgba(0,0,0,0.53)"/><path d="M75.5,54.009a2.756,2.756,0,1,0-2.756-2.756A2.756,2.756,0,0,0,75.5,54.009Z" fill="rgba(0,0,0,0.53)"/><path d="M75.5,78.257A2.756,2.756,0,1,0,72.746,75.5,2.756,2.756,0,0,0,75.5,78.257Z" fill="rgba(0,0,0,0.53)"/><path d="M75.5,102.507a2.755,2.755,0,1,0-2.756-2.755A2.756,2.756,0,0,0,75.5,102.507Z" fill="rgba(0,0,0,0.53)"/><path d="M75.5,126.755A2.755,2.755,0,1,0,72.746,124,2.755,2.755,0,0,0,75.5,126.755Z" fill="rgba(0,0,0,0.53)"/><path d="M75.5,151.005a2.756,2.756,0,1,0-2.756-2.755A2.755,2.755,0,0,0,75.5,151.005Z" fill="rgba(0,0,0,0.53)"/><path d="M75.5,175.255a2.756,2.756,0,1,0-2.756-2.755A2.755,2.755,0,0,0,75.5,175.255Z" fill="rgba(0,0,0,0.53)"/><path d="M75.5,199.5a2.756,2.756,0,1,0-2.756-2.755A2.755,2.755,0,0,0,75.5,199.5Z" fill="rgba(0,0,0,0.53)"/><path d="M75.5,223.751A2.756,2.756,0,1,0,72.746,221,2.755,2.755,0,0,0,75.5,223.751Z" fill="rgba(0,0,0,0.53)"/><path d="M75.5,248a2.755,2.755,0,1,0-2.756-2.755A2.755,2.755,0,0,0,75.5,248Z" fill="rgba(0,0,0,0.53)"/><path d="M51.252,5.511A2.756,2.756,0,1,0,48.5,2.756,2.756,2.756,0,0,0,51.252,5.511Z" fill="rgba(0,0,0,0.53)"/><path d="M51.252,29.759A2.756,2.756,0,1,0,48.5,27,2.756,2.756,0,0,0,51.252,29.759Z" fill="rgba(0,0,0,0.53)"/><path d="M51.252,54.009A2.756,2.756,0,1,0,48.5,51.254,2.756,2.756,0,0,0,51.252,54.009Z" fill="rgba(0,0,0,0.53)"/><path d="M51.252,78.257A2.756,2.756,0,1,0,48.5,75.5,2.756,2.756,0,0,0,51.252,78.257Z" fill="rgba(0,0,0,0.53)"/><path d="M51.252,102.507A2.755,2.755,0,1,0,48.5,99.752,2.756,2.756,0,0,0,51.252,102.507Z" fill="rgba(0,0,0,0.53)"/><path d="M51.252,126.755A2.755,2.755,0,1,0,48.5,124,2.755,2.755,0,0,0,51.252,126.755Z" fill="rgba(0,0,0,0.53)"/><path d="M51.252,151.005A2.756,2.756,0,1,0,48.5,148.25,2.755,2.755,0,0,0,51.252,151.005Z" fill="rgba(0,0,0,0.53)"/><path d="M51.252,175.255A2.756,2.756,0,1,0,48.5,172.5,2.755,2.755,0,0,0,51.252,175.255Z" fill="rgba(0,0,0,0.53)"/><path d="M51.252,199.5a2.756,2.756,0,1,0-2.755-2.755A2.755,2.755,0,0,0,51.252,199.5Z" fill="rgba(0,0,0,0.53)"/><path d="M51.252,223.751A2.756,2.756,0,1,0,48.5,221,2.755,2.755,0,0,0,51.252,223.751Z" fill="rgba(0,0,0,0.53)"/><path d="M27,5.511a2.756,2.756,0,1,0-2.756-2.756A2.756,2.756,0,0,0,27,5.511Z" fill="rgba(0,0,0,0.53)"/><path d="M27,29.759A2.756,2.756,0,1,0,24.246,27,2.756,2.756,0,0,0,27,29.759Z" fill="rgba(0,0,0,0.53)"/><path d="M27,54.009a2.756,2.756,0,1,0-2.756-2.756A2.756,2.756,0,0,0,27,54.009Z" fill="rgba(0,0,0,0.53)"/><path d="M27,78.257A2.756,2.756,0,1,0,24.246,75.5,2.756,2.756,0,0,0,27,78.257Z" fill="rgba(0,0,0,0.53)"/><path d="M27,102.507a2.755,2.755,0,1,0-2.756-2.755A2.756,2.756,0,0,0,27,102.507Z" fill="rgba(0,0,0,0.53)"/><path d="M27,126.755A2.755,2.755,0,1,0,24.246,124,2.755,2.755,0,0,0,27,126.755Z" fill="rgba(0,0,0,0.53)"/><path d="M27,151.005a2.756,2.756,0,1,0-2.756-2.755A2.755,2.755,0,0,0,27,151.005Z" fill="rgba(0,0,0,0.53)"/><path d="M27,175.255a2.756,2.756,0,1,0-2.756-2.755A2.755,2.755,0,0,0,27,175.255Z" fill="rgba(0,0,0,0.53)"/><path d="M27,199.5a2.756,2.756,0,1,0-2.756-2.755A2.755,2.755,0,0,0,27,199.5Z" fill="rgba(0,0,0,0.53)"/><path d="M2.756,29.759A2.756,2.756,0,1,0,0,27,2.756,2.756,0,0,0,2.756,29.759Z" fill="rgba(0,0,0,0.53)"/><path d="M2.756,54.009A2.756,2.756,0,1,0,0,51.254,2.756,2.756,0,0,0,2.756,54.009Z" fill="rgba(0,0,0,0.53)"/><path d="M2.756,78.257A2.756,2.756,0,1,0,0,75.5,2.756,2.756,0,0,0,2.756,78.257Z" fill="rgba(0,0,0,0.53)"/><path d="M2.756,102.507A2.755,2.755,0,1,0,0,99.752,2.756,2.756,0,0,0,2.756,102.507Z" fill="rgba(0,0,0,0.53)"/><path d="M2.756,126.755A2.755,2.755,0,1,0,0,124,2.755,2.755,0,0,0,2.756,126.755Z" fill="rgba(0,0,0,0.53)"/><path d="M2.756,151.005A2.756,2.756,0,1,0,0,148.25,2.755,2.755,0,0,0,2.756,151.005Z" fill="rgba(0,0,0,0.53)"/><path d="M2.756,175.255A2.756,2.756,0,1,0,0,172.5,2.755,2.755,0,0,0,2.756,175.255Z" fill="rgba(0,0,0,0.53)"/></svg>