<svg xmlns="http://www.w3.org/2000/svg" xmlns:xlink="http://www.w3.org/1999/xlink" width="1250" height="1059.099" viewBox="0 0 1250 1059.099"><defs><linearGradient id="a" x1="0.654" y1="0.411" x2="0.992" y2="0.478" gradientUnits="objectBoundingBox"><stop offset="0" stop-opacity="0.027"/><stop offset="1" stop-color="#555b64" stop-opacity="0"/></linearGradient></defs><g transform="translate(-175 -111)"><path d="M911.9,44.468c115.279,30.174,233.652,108.316,250.673,208.121,16.247,99.805-68.858,221.273-126.884,336.552-58.8,114.505-89.747,223.595-161.7,297.094-72.726,73.5-185.684,112.184-287.036,95.937-100.579-16.247-190.326-88.2-311.795-145.452C153.688,778.693.5,735.367-56.754,640.978c-57.253-95.163-18.568-239.842,27.853-382.2C18.294,115.647,71.678-24.39,173.8-58.432S425.251-21.3,556,5.784C685.983,32.862,797.393,14.294,911.9,44.468Z" transform="translate(260.403 178.468)" fill="url(#a)"/><path d="M907.909,44.02C1022.727,74.073,1140.627,151.9,1157.58,251.308,1173.763,350.714,1089,471.7,1031.2,586.515c-58.565,114.047-89.388,222.7-161.053,295.906-72.435,73.206-184.941,111.735-285.888,95.553C484.085,961.791,394.7,890.127,273.715,833.1,152.732,775.309.155,732.156-56.868,638.144c-57.024-94.783-18.494-238.883,27.741-380.671C17.879,114.914,71.05-24.562,172.767-58.468S423.209-21.48,553.438,5.491C682.9,32.461,793.862,13.967,907.909,44.02Z" transform="translate(265.403 188.468)" fill="url(#a)"/></g></svg>