<svg xmlns="http://www.w3.org/2000/svg" width="1200" height="1011.18" viewBox="0 0 1200 1011.18"><path d="M872.006,39.99c110.668,28.967,224.306,103.983,240.646,199.8,15.6,95.813-66.1,212.423-121.809,323.09C934.4,672.8,904.687,777.527,835.612,848.087c-69.817,70.56-178.257,107.7-275.555,92.1-96.556-15.6-182.713-84.672-299.323-139.634C144.125,744.847-2.937,703.254-57.9,612.64c-54.963-91.357-17.826-230.248,26.738-366.912C14.146,108.322,65.395-26.113,163.436-58.794S404.825-23.142,530.348,2.853C655.127,28.849,762.081,11.024,872.006,39.99Z" transform="translate(85.403 67.468)" fill="rgba(5,5,5,0.02)"/></svg>