<svg xmlns="http://www.w3.org/2000/svg" width="32" height="31.762" viewBox="0 0 32 31.762"><path d="M22.649,2a11.123,11.123,0,0,0-10.932,9.121,9.534,9.534,0,0,0-4.958,7.421A7.945,7.945,0,1,0,17.231,29.014a9.534,9.534,0,0,0,7.421-4.91,11.123,11.123,0,0,0-2-22.1ZM14.7,26.519a.827.827,0,0,1-.111.493h0a4.767,4.767,0,1,1-5.784-5.784h0l.445-.159a4.672,4.672,0,0,1,5.45,5.45Zm7.945-5.832a2.859,2.859,0,0,1-.079.3,5.943,5.943,0,0,1-.27.858,6.356,6.356,0,0,1-4.29,3.814,2.545,2.545,0,0,0-.1-.842,1.418,1.418,0,0,1,0-.636,4.8,4.8,0,0,0-.286-.906,5.92,5.92,0,0,0-.191-.572,6.689,6.689,0,0,0-.477-.874c0-.143-.143-.3-.238-.445a8.422,8.422,0,0,0-.953-1.16l-.318-.27a8.771,8.771,0,0,0-.842-.683,4.609,4.609,0,0,0-.54-.3,6.356,6.356,0,0,0-.794-.429,3.718,3.718,0,0,0-.636-.207,4.973,4.973,0,0,0-.826-.254,1.813,1.813,0,0,1-.7-.1l-.969-.1a6.356,6.356,0,0,1,3.8-4.29,5.2,5.2,0,0,1,.842-.27l.318-.079a5.943,5.943,0,0,1,1.192-.127,6.356,6.356,0,0,1,6.356,6.356,6.1,6.1,0,0,1-.127,1.208Zm3.178-.254V19.48a9.534,9.534,0,0,0-9.534-9.534H15.34A7.945,7.945,0,1,1,25.827,20.433Z" transform="translate(-2.013 -1.999)" fill="#fe1554"/></svg>