<svg xmlns="http://www.w3.org/2000/svg" width="382.002" height="382" viewBox="0 0 382.002 382"><g transform="translate(-1380.999 -6285)" opacity="0.208"><path d="M422.58,506.683a192.952,192.952,0,0,1-31.8-2.635L610.944,283.883a192.949,192.949,0,0,1,2.635,31.8c0,.786,0,1.553-.014,2.347L424.927,506.669C424.136,506.678,423.346,506.683,422.58,506.683Zm14.164-.517L613.062,329.848a190.528,190.528,0,0,1-9.112,45.881L482.626,497.053a190.52,190.52,0,0,1-45.88,9.112ZM381.3,502.211a190.083,190.083,0,0,1-28.208-8.561L600.547,246.2a190.107,190.107,0,0,1,8.561,28.208L381.3,502.211Zm-36.192-11.891h0a191.075,191.075,0,0,1-23.988-12.781L584.434,214.225a191.227,191.227,0,0,1,12.781,23.988L345.11,490.319Zm156.075-.509v0l95.525-95.525a191.642,191.642,0,0,1-95.524,95.527ZM314.3,473.046h0a192.359,192.359,0,0,1-20.48-16.286L563.654,186.922a192.542,192.542,0,0,1,16.288,20.48ZM288.023,451.24h0a192.527,192.527,0,0,1-17.2-19.564l267.75-267.75a192.7,192.7,0,0,1,19.567,17.2Zm-21.987-26.1h0a191.393,191.393,0,0,1-13.8-22.969L509.068,145.342a191.646,191.646,0,0,1,22.972,13.8Zm-17.473-30.61h0a190.111,190.111,0,0,1-9.841-26.925L474.5,131.825a190.2,190.2,0,0,1,26.928,9.842Zm-12.145-35.939h0a191.482,191.482,0,0,1-4.545-32.221L433.266,124.977a191.54,191.54,0,0,1,32.224,4.545Zm-4.839-43.243h0l0,0a192.124,192.124,0,0,1,4.556-41.322L380.921,129.24a192.144,192.144,0,0,1,41.326-4.556Zm8.68-56.763h0l0,0a191.291,191.291,0,0,1,125.223-125.22Z" transform="translate(1149.421 6160.317)" fill="#fff"/></g></svg>