<svg id="visual" viewBox="0 0 900 600" width="900" height="600" xmlns="http://www.w3.org/2000/svg" xmlns:xlink="http://www.w3.org/1999/xlink" version="1.1"><rect x="0" y="0" width="900" height="600" fill="#002233"></rect><path d="M0 428L21.5 429.7C43 431.3 86 434.7 128.8 442.7C171.7 450.7 214.3 463.3 257.2 460.8C300 458.3 343 440.7 385.8 429.3C428.7 418 471.3 413 514.2 418.3C557 423.7 600 439.3 642.8 447.7C685.7 456 728.3 457 771.2 451.7C814 446.3 857 434.7 878.5 428.8L900 423L900 601L878.5 601C857 601 814 601 771.2 601C728.3 601 685.7 601 642.8 601C600 601 557 601 514.2 601C471.3 601 428.7 601 385.8 601C343 601 300 601 257.2 601C214.3 601 171.7 601 128.8 601C86 601 43 601 21.5 601L0 601Z" fill="#FF0066" stroke-linecap="round" stroke-linejoin="miter"></path></svg>