<svg xmlns="http://www.w3.org/2000/svg" width="32" height="32" viewBox="0 0 32 32"><path d="M32.4,2H13.2a1.6,1.6,0,0,0-1.6,1.6V10H8.4a1.6,1.6,0,0,0-1.6,1.6V18H3.6A1.6,1.6,0,0,0,2,19.6V32.4A1.6,1.6,0,0,0,3.6,34H16.4A1.6,1.6,0,0,0,18,32.4V29.2h6.4A1.6,1.6,0,0,0,26,27.6V24.4h6.4A1.6,1.6,0,0,0,34,22.8V3.6A1.6,1.6,0,0,0,32.4,2ZM14.8,30.8H5.2V21.2h9.6Zm8-4.8H18V19.6A1.6,1.6,0,0,0,16.4,18H10V13.2H22.8Zm8-4.8H26V11.6A1.6,1.6,0,0,0,24.4,10H14.8V5.2h16Z" transform="translate(-2 -2)" fill="#fe1554"/></svg>