<svg xmlns="http://www.w3.org/2000/svg" width="32" height="32" viewBox="0 0 32 32"><path d="M20.56,16.24c.16.16.32.16.64.16H32.4A1.512,1.512,0,0,0,34,14.8c0-.32,0-.48-.16-.64l-5.6-11.2A1.619,1.619,0,0,0,26,2.32c-.16.16-.48.32-.64.64l-5.6,11.2A1.7,1.7,0,0,0,20.56,16.24ZM26.8,7.12l3.04,6.08H23.76ZM9.2,2a7.2,7.2,0,1,0,7.2,7.2A7.17,7.17,0,0,0,9.2,2Zm0,11.2a4,4,0,1,1,4-4A3.961,3.961,0,0,1,9.2,13.2Zm6.72,6.88h0a1.547,1.547,0,0,0-2.24,0h0L9.2,24.56,4.72,20.08a1.547,1.547,0,0,0-2.24,0,1.547,1.547,0,0,0,0,2.24L6.96,26.8,2.48,31.28a1.547,1.547,0,0,0,0,2.24,1.547,1.547,0,0,0,2.24,0h0L9.2,29.04l4.48,4.48a1.584,1.584,0,1,0,2.24-2.24L11.44,26.8l4.48-4.48A1.547,1.547,0,0,0,15.92,20.08ZM32.4,19.6H21.2a1.512,1.512,0,0,0-1.6,1.6V32.4A1.512,1.512,0,0,0,21.2,34H32.4A1.512,1.512,0,0,0,34,32.4V21.2A1.512,1.512,0,0,0,32.4,19.6ZM30.8,30.8h-8v-8h8Z" transform="translate(-2 -2)" fill="#fe1554"/></svg>