<svg xmlns="http://www.w3.org/2000/svg" width="30.505" height="32" viewBox="0 0 30.505 32"><g transform="translate(-6.936)"><path d="M33.571,5.737A15.664,15.664,0,0,0,21.675,0,14.334,14.334,0,0,0,11.623,4.084c-4.315,4.2-5.738,9.2-3.9,13.713,1.494,3.676,4.916,6.244,8.321,6.244.091,0,.18,0,.27-.006.507-.021,1-.063,1.47-.1.572-.05,1.112-.1,1.591-.1,1.136,0,2.117,0,2.117,2.892,0,3.1,1.89,5.272,4.6,5.273h0c1.925,0,4.057-1.114,6.165-3.222a18.245,18.245,0,0,0,5.089-10.736A15.942,15.942,0,0,0,33.571,5.737ZM30.68,27.21c-1.659,1.659-3.292,2.573-4.6,2.572-1.755,0-2.377-1.646-2.377-3.055,0-3.486-1.378-5.11-4.335-5.11-.575,0-1.161.051-1.783.1-.449.039-.914.079-1.371.1-.06,0-.119,0-.178,0-2.486,0-5.121-2.044-6.266-4.861-1.478-3.635-.24-7.75,3.4-11.289a12.128,12.128,0,0,1,8.505-3.455A13.481,13.481,0,0,1,31.892,7.186C37.347,13.507,35.56,22.331,30.68,27.21Z" fill="#fe1554"/><path d="M192.654,138.022A3.343,3.343,0,1,0,196,134.658,3.357,3.357,0,0,0,192.654,138.022Zm4.467,0A1.125,1.125,0,1,1,196,136.876,1.137,1.137,0,0,1,197.121,138.022Z" transform="translate(-165.708 -120.149)" fill="#fe1554"/><path d="M171.55,65.634A3.343,3.343,0,1,0,168.207,69,3.357,3.357,0,0,0,171.55,65.634Zm-4.467,0a1.125,1.125,0,1,1,1.125,1.146A1.136,1.136,0,0,1,167.082,65.634Z" transform="translate(-140.912 -55.561)" fill="#fe1554"/><path d="M97.181,39.627a3.364,3.364,0,1,0,3.343,3.363A3.357,3.357,0,0,0,97.181,39.627Zm0,4.509a1.146,1.146,0,1,1,1.125-1.146A1.137,1.137,0,0,1,97.181,44.136Z" transform="translate(-77.539 -35.357)" fill="#fe1554"/><path d="M43.138,92.809a3.364,3.364,0,1,0,3.343,3.363A3.357,3.357,0,0,0,43.138,92.809Zm0,4.509a1.146,1.146,0,1,1,1.125-1.146A1.137,1.137,0,0,1,43.138,97.318Z" transform="translate(-29.319 -82.809)" fill="#fe1554"/></g></svg>