<svg width="1384" height="210" viewBox="0 0 1384 210" fill="none" xmlns="http://www.w3.org/2000/svg">
<rect width="1.3184" height="98" transform="matrix(1 1.04774e-07 7.29451e-08 -1 10.3408 160.862)" fill="url(#paint0_linear_4131_24791)"/>
<rect width="1.3184" height="90" transform="matrix(1 1.04774e-07 7.29451e-08 -1 23.3408 152.473)" fill="url(#paint1_linear_4131_24791)"/>
<rect width="1.3184" height="81" transform="matrix(1 1.04774e-07 7.29451e-08 -1 36.3408 146.48)" fill="url(#paint2_linear_4131_24791)"/>
<rect width="1.3184" height="73" transform="matrix(1 1.04774e-07 7.29451e-08 -1 49.3408 140.488)" fill="url(#paint3_linear_4131_24791)"/>
<rect width="1.3184" height="67" transform="matrix(1 1.04774e-07 7.29451e-08 -1 62.3408 138.091)" fill="url(#paint4_linear_4131_24791)"/>
<rect width="1.3184" height="59" transform="matrix(1 1.04774e-07 7.29451e-08 -1 75.3408 135.694)" fill="url(#paint5_linear_4131_24791)"/>
<rect width="1.3184" height="50" transform="matrix(1 1.04774e-07 7.29451e-08 -1 89.3408 134.496)" fill="url(#paint6_linear_4131_24791)"/>
<rect width="1.3184" height="44" transform="matrix(1 1.04774e-07 7.29451e-08 -1 102.341 135.694)" fill="url(#paint7_linear_4131_24791)"/>
<rect width="1.3184" height="38" transform="matrix(1 1.04774e-07 7.29451e-08 -1 116.341 136.893)" fill="url(#paint8_linear_4131_24791)"/>
<rect width="1.3184" height="35" transform="matrix(1 1.04774e-07 7.29451e-08 -1 129.341 140.488)" fill="url(#paint9_linear_4131_24791)"/>
<rect width="1.3184" height="34" transform="matrix(1 1.04774e-07 7.29451e-08 -1 142.341 144.083)" fill="url(#paint10_linear_4131_24791)"/>
<rect width="1.3184" height="36" transform="matrix(1 1.04774e-07 7.29451e-08 -1 156.341 151.274)" fill="url(#paint11_linear_4131_24791)"/>
<rect width="1.3184" height="41" transform="matrix(1 1.04774e-07 7.29451e-08 -1 168.341 158.465)" fill="url(#paint12_linear_4131_24791)"/>
<rect width="1.3184" height="49" transform="matrix(1 1.04774e-07 7.29451e-08 -1 181.341 168.053)" fill="url(#paint13_linear_4131_24791)"/>
<rect width="1.3184" height="60" transform="matrix(1 1.04774e-07 7.29451e-08 -1 194.341 178.839)" fill="url(#paint14_linear_4131_24791)"/>
<rect width="1.3184" height="70" transform="matrix(1 1.04774e-07 7.29451e-08 -1 207.341 188.427)" fill="url(#paint15_linear_4131_24791)"/>
<rect width="1.3184" height="78" transform="matrix(1 1.04774e-07 7.29451e-08 -1 220.341 195.618)" fill="url(#paint16_linear_4131_24791)"/>
<rect width="1.3184" height="86" transform="matrix(1 1.04774e-07 7.29451e-08 -1 234.341 201.61)" fill="url(#paint17_linear_4131_24791)"/>
<rect width="1.3184" height="95" transform="matrix(1 1.04774e-07 7.29451e-08 -1 247.341 205.206)" fill="url(#paint18_linear_4131_24791)"/>
<rect width="1.3184" height="103" transform="matrix(1 1.04774e-07 7.29451e-08 -1 260.341 208.801)" fill="url(#paint19_linear_4131_24791)"/>
<rect width="1.3184" height="113" transform="matrix(1 1.04774e-07 7.29451e-08 -1 273.341 210)" fill="url(#paint20_linear_4131_24791)"/>
<rect width="1.3184" height="120" transform="matrix(1 1.04774e-07 7.29451e-08 -1 286.341 210)" fill="url(#paint21_linear_4131_24791)"/>
<rect width="1.3184" height="128" transform="matrix(1 1.04774e-07 7.29451e-08 -1 300.341 208.801)" fill="url(#paint22_linear_4131_24791)"/>
<rect width="1.3184" height="134" transform="matrix(1 1.04774e-07 7.29451e-08 -1 313.341 206.404)" fill="url(#paint23_linear_4131_24791)"/>
<rect width="1.3184" height="135" transform="matrix(1 1.04774e-07 7.29451e-08 -1 326.341 202.809)" fill="url(#paint24_linear_4131_24791)"/>
<rect width="1.3184" height="137" transform="matrix(1 1.04774e-07 7.29451e-08 -1 339.341 198.015)" fill="url(#paint25_linear_4131_24791)"/>
<rect width="1.3184" height="133" transform="matrix(1 1.04774e-07 7.29451e-08 -1 352.341 192.022)" fill="url(#paint26_linear_4131_24791)"/>
<rect width="1.3184" height="128" transform="matrix(1 1.04774e-07 7.29451e-08 -1 365.341 184.832)" fill="url(#paint27_linear_4131_24791)"/>
<rect width="1.3184" height="125" transform="matrix(1 1.04774e-07 7.29451e-08 -1 379.341 177.641)" fill="url(#paint28_linear_4131_24791)"/>
<rect width="1.3184" height="117" transform="matrix(1 1.04774e-07 7.29451e-08 -1 392.341 171.648)" fill="url(#paint29_linear_4131_24791)"/>
<rect width="1.3184" height="111" transform="matrix(1 1.04774e-07 7.29451e-08 -1 405.341 166.855)" fill="url(#paint30_linear_4131_24791)"/>
<rect width="1.3184" height="105" transform="matrix(1 1.04774e-07 7.29451e-08 -1 416.341 163.259)" fill="url(#paint31_linear_4131_24791)"/>
<rect width="1.3184" height="101" transform="matrix(1 1.04774e-07 7.29451e-08 -1 429.341 160.862)" fill="url(#paint32_linear_4131_24791)"/>
<rect width="1.3184" height="93" transform="matrix(1 1.04774e-07 7.29451e-08 -1 442.341 158.465)" fill="url(#paint33_linear_4131_24791)"/>
<rect width="1.3184" height="87" transform="matrix(1 1.04774e-07 7.29451e-08 -1 455.341 157.267)" fill="url(#paint34_linear_4131_24791)"/>
<rect width="1.3184" height="80" transform="matrix(1 1.04774e-07 7.29451e-08 -1 468.341 157.267)" fill="url(#paint35_linear_4131_24791)"/>
<rect width="1.3184" height="74" transform="matrix(1 1.04774e-07 7.29451e-08 -1 481.341 158.465)" fill="url(#paint36_linear_4131_24791)"/>
<rect width="1.3184" height="70" transform="matrix(1 1.04774e-07 7.29451e-08 -1 495.341 160.862)" fill="url(#paint37_linear_4131_24791)"/>
<rect width="1.3184" height="66" transform="matrix(1 1.04774e-07 7.29451e-08 -1 508.341 164.458)" fill="url(#paint38_linear_4131_24791)"/>
<rect width="1.3184" height="64" transform="matrix(1 1.04774e-07 7.29451e-08 -1 521.341 168.053)" fill="url(#paint39_linear_4131_24791)"/>
<rect width="1.3184" height="64" transform="matrix(1 1.04774e-07 7.29451e-08 -1 534.341 174.045)" fill="url(#paint40_linear_4131_24791)"/>
<rect width="1.3184" height="65" transform="matrix(1 1.04774e-07 7.29451e-08 -1 547.341 181.236)" fill="url(#paint41_linear_4131_24791)"/>
<rect width="1.3184" height="68" transform="matrix(1 1.04774e-07 7.29451e-08 -1 561.341 188.427)" fill="url(#paint42_linear_4131_24791)"/>
<rect width="1.3184" height="73" transform="matrix(1 1.04774e-07 7.29451e-08 -1 574.341 195.618)" fill="url(#paint43_linear_4131_24791)"/>
<rect width="1.3184" height="77" transform="matrix(1 1.04774e-07 7.29451e-08 -1 587.341 200.412)" fill="url(#paint44_linear_4131_24791)"/>
<rect width="1.3184" height="80" transform="matrix(1 1.04774e-07 7.29451e-08 -1 600.341 204.007)" fill="url(#paint45_linear_4131_24791)"/>
<rect width="1.3184" height="84" transform="matrix(1 1.04774e-07 7.29451e-08 -1 613.341 207.603)" fill="url(#paint46_linear_4131_24791)"/>
<rect width="1.3184" height="86" transform="matrix(1 1.04774e-07 7.29451e-08 -1 626.341 208.801)" fill="url(#paint47_linear_4131_24791)"/>
<rect width="1.3184" height="90" transform="matrix(1 1.04774e-07 7.29451e-08 -1 640.341 210)" fill="url(#paint48_linear_4131_24791)"/>
<rect width="1.3184" height="96" transform="matrix(1 1.04774e-07 7.29451e-08 -1 653.341 210)" fill="url(#paint49_linear_4131_24791)"/>
<rect width="1.3184" height="98" transform="matrix(1 1.04774e-07 7.29451e-08 -1 666.341 208.801)" fill="url(#paint50_linear_4131_24791)"/>
<rect width="1.3184" height="102" transform="matrix(1 1.04774e-07 7.29451e-08 -1 679.341 206.404)" fill="url(#paint51_linear_4131_24791)"/>
<rect width="1.3184" height="107" transform="matrix(1 1.04774e-07 7.29451e-08 -1 692.341 202.809)" fill="url(#paint52_linear_4131_24791)"/>
<rect width="1.3184" height="109" transform="matrix(1 1.04774e-07 7.29451e-08 -1 706.341 198.015)" fill="url(#paint53_linear_4131_24791)"/>
<rect width="1.3184" height="109" transform="matrix(1 1.04774e-07 7.29451e-08 -1 719.341 192.022)" fill="url(#paint54_linear_4131_24791)"/>
<rect width="1.3184" height="107" transform="matrix(1 1.04774e-07 7.29451e-08 -1 732.341 184.832)" fill="url(#paint55_linear_4131_24791)"/>
<rect width="1.3184" height="103" transform="matrix(1 1.04774e-07 7.29451e-08 -1 745.341 177.641)" fill="url(#paint56_linear_4131_24791)"/>
<rect width="1.3184" height="97" transform="matrix(1 1.04774e-07 7.29451e-08 -1 758.341 169.251)" fill="url(#paint57_linear_4131_24791)"/>
<rect width="1.3184" height="91" transform="matrix(1 1.04774e-07 7.29451e-08 -1 771.341 160.862)" fill="url(#paint58_linear_4131_24791)"/>
<rect width="1.3184" height="83" transform="matrix(1 1.04774e-07 7.29451e-08 -1 785.341 152.473)" fill="url(#paint59_linear_4131_24791)"/>
<rect width="1.3184" height="74" transform="matrix(1 1.04774e-07 7.29451e-08 -1 798.341 146.48)" fill="url(#paint60_linear_4131_24791)"/>
<rect width="1.3184" height="70" transform="matrix(1 1.04774e-07 7.29451e-08 -1 811.341 141.687)" fill="url(#paint61_linear_4131_24791)"/>
<rect width="1.3184" height="64" transform="matrix(1 1.04774e-07 7.29451e-08 -1 824.341 138.091)" fill="url(#paint62_linear_4131_24791)"/>
<rect width="1.3184" height="58" transform="matrix(1 1.04774e-07 7.29451e-08 -1 837.341 135.694)" fill="url(#paint63_linear_4131_24791)"/>
<rect width="1.3184" height="49" transform="matrix(1 1.04774e-07 7.29451e-08 -1 850.341 134.496)" fill="url(#paint64_linear_4131_24791)"/>
<rect width="1.3184" height="43" transform="matrix(1 1.04774e-07 7.29451e-08 -1 863.341 134.496)" fill="url(#paint65_linear_4131_24791)"/>
<rect width="1.3184" height="36" transform="matrix(1 1.04774e-07 7.29451e-08 -1 877.341 134.496)" fill="url(#paint66_linear_4131_24791)"/>
<rect width="1.3184" height="32" transform="matrix(1 1.04774e-07 7.29451e-08 -1 890.341 136.893)" fill="url(#paint67_linear_4131_24791)"/>
<rect width="1.3184" height="26" transform="matrix(1 1.04774e-07 7.29451e-08 -1 904.341 139.29)" fill="url(#paint68_linear_4131_24791)"/>
<rect width="1.3184" height="24" transform="matrix(1 1.04774e-07 7.29451e-08 -1 917.341 144.083)" fill="url(#paint69_linear_4131_24791)"/>
<rect width="1.3184" height="24" transform="matrix(1 1.04774e-07 7.29451e-08 -1 930.341 148.877)" fill="url(#paint70_linear_4131_24791)"/>
<rect width="1.3184" height="26" transform="matrix(1 1.04774e-07 7.29451e-08 -1 943.341 154.87)" fill="url(#paint71_linear_4131_24791)"/>
<rect width="1.3184" height="31" transform="matrix(1 1.04774e-07 7.29451e-08 -1 956.341 162.061)" fill="url(#paint72_linear_4131_24791)"/>
<rect width="1.3184" height="40" transform="matrix(1 1.04774e-07 7.29451e-08 -1 970.341 170.45)" fill="url(#paint73_linear_4131_24791)"/>
<rect width="1.3184" height="46" transform="matrix(1 1.04774e-07 7.29451e-08 -1 982.341 176.442)" fill="url(#paint74_linear_4131_24791)"/>
<rect width="1.3184" height="49" transform="matrix(1 1.04774e-07 7.29451e-08 -1 995.341 180.038)" fill="url(#paint75_linear_4131_24791)"/>
<rect width="1.3184" height="55" transform="matrix(1 1.04774e-07 7.29451e-08 -1 1008.34 183.633)" fill="url(#paint76_linear_4131_24791)"/>
<rect width="1.3184" height="64" transform="matrix(1 1.04774e-07 7.29451e-08 -1 1021.34 186.03)" fill="url(#paint77_linear_4131_24791)"/>
<rect width="1.3184" height="71" transform="matrix(1 1.04774e-07 7.29451e-08 -1 1034.34 187.229)" fill="url(#paint78_linear_4131_24791)"/>
<rect width="1.3184" height="78" transform="matrix(1 1.04774e-07 7.29451e-08 -1 1048.34 187.229)" fill="url(#paint79_linear_4131_24791)"/>
<rect width="1.3184" height="86" transform="matrix(1 1.04774e-07 7.29451e-08 -1 1061.34 187.229)" fill="url(#paint80_linear_4131_24791)"/>
<rect width="1.3184" height="92" transform="matrix(1 1.04774e-07 7.29451e-08 -1 1074.34 185)" fill="url(#paint81_linear_4131_24791)"/>
<rect width="1.3184" height="96" transform="matrix(1 1.04774e-07 7.29451e-08 -1 1087.34 181)" fill="url(#paint82_linear_4131_24791)"/>
<rect width="1.3184" height="102" transform="matrix(1 1.04774e-07 7.29451e-08 -1 1100.34 178)" fill="url(#paint83_linear_4131_24791)"/>
<rect width="1.3184" height="100" transform="matrix(1 1.04774e-07 7.29451e-08 -1 1114.34 172)" fill="url(#paint84_linear_4131_24791)"/>
<rect width="1.3184" height="97" transform="matrix(1 1.04774e-07 7.29451e-08 -1 1127.34 164)" fill="url(#paint85_linear_4131_24791)"/>
<rect width="1.3184" height="93" transform="matrix(1 1.04774e-07 7.29451e-08 -1 1140.34 157)" fill="url(#paint86_linear_4131_24791)"/>
<rect width="1.3184" height="88" transform="matrix(1 1.04774e-07 7.29451e-08 -1 1153.34 150)" fill="url(#paint87_linear_4131_24791)"/>
<rect width="1.3184" height="82" transform="matrix(1 1.04774e-07 7.29451e-08 -1 1166.34 144)" fill="url(#paint88_linear_4131_24791)"/>
<rect width="1.3184" height="77" transform="matrix(1 1.04774e-07 7.29451e-08 -1 1179.34 139)" fill="url(#paint89_linear_4131_24791)"/>
<rect width="1.3184" height="72" transform="matrix(1 1.04774e-07 7.29451e-08 -1 1193.34 136)" fill="url(#paint90_linear_4131_24791)"/>
<rect width="1.3184" height="65" transform="matrix(1 1.04774e-07 7.29451e-08 -1 1206.34 132)" fill="url(#paint91_linear_4131_24791)"/>
<rect width="1.3184" height="61" transform="matrix(1 1.04774e-07 7.29451e-08 -1 1219.34 131)" fill="url(#paint92_linear_4131_24791)"/>
<rect width="1.3184" height="56" transform="matrix(1 1.04774e-07 7.29451e-08 -1 1232.34 130)" fill="url(#paint93_linear_4131_24791)"/>
<rect width="1.3184" height="49" transform="matrix(1 1.04774e-07 7.29451e-08 -1 1245.34 131)" fill="url(#paint94_linear_4131_24791)"/>
<rect width="1.3184" height="45" transform="matrix(1 1.04774e-07 7.29451e-08 -1 1258.34 133)" fill="url(#paint95_linear_4131_24791)"/>
<rect width="1.3184" height="43" transform="matrix(1 1.04774e-07 7.29451e-08 -1 1271.34 136)" fill="url(#paint96_linear_4131_24791)"/>
<rect width="1.3184" height="41" transform="matrix(1 1.04774e-07 7.29451e-08 -1 1284.34 139)" fill="url(#paint97_linear_4131_24791)"/>
<rect width="1.3184" height="41" transform="matrix(1 1.04774e-07 7.29451e-08 -1 1297.34 143)" fill="url(#paint98_linear_4131_24791)"/>
<rect width="1.3184" height="44" transform="matrix(1 1.04774e-07 7.29451e-08 -1 1311.34 149)" fill="url(#paint99_linear_4131_24791)"/>
<rect width="1.3184" height="49" transform="matrix(1 1.04774e-07 7.29451e-08 -1 1324.34 157)" fill="url(#paint100_linear_4131_24791)"/>
<rect width="1.3184" height="55" transform="matrix(1 1.04774e-07 7.29451e-08 -1 1337.34 165)" fill="url(#paint101_linear_4131_24791)"/>
<rect width="1.3184" height="65" transform="matrix(1 1.04774e-07 7.29451e-08 -1 1350.34 175)" fill="url(#paint102_linear_4131_24791)"/>
<rect width="1.3184" height="75" transform="matrix(1 1.04774e-07 7.29451e-08 -1 1363.34 185)" fill="url(#paint103_linear_4131_24791)"/>
<rect width="1.3184" height="87" transform="matrix(1 1.04774e-07 7.29451e-08 -1 1377.34 195)" fill="url(#paint104_linear_4131_24791)"/>
<g clip-path="url(#clip0_4131_24791)">
<rect x="10.3408" y="-63" width="1.3184" height="121" fill="white"/>
<rect x="23.5648" y="-63" width="1.3184" height="122" fill="white"/>
<rect x="36.7888" y="-63" width="1.3184" height="124" fill="white"/>
<rect x="50.0128" y="-63" width="1.3184" height="126" fill="white"/>
<rect x="63.2368" y="-63" width="1.3184" height="130" fill="white"/>
<rect x="76.4608" y="-63" width="1.3184" height="134" fill="white"/>
<rect x="89.6848" y="-63" width="1.3184" height="140" fill="white"/>
<rect x="102.909" y="-63" width="1.3184" height="146" fill="white"/>
<rect x="116.133" y="-63" width="1.3184" height="153" fill="white"/>
<rect x="128.357" y="-63" width="1.3184" height="158" fill="white"/>
<rect x="141.581" y="-63" width="1.3184" height="162" fill="white"/>
<rect x="154.805" y="-63" width="1.3184" height="166" fill="white"/>
<rect x="168.029" y="-63" width="1.3184" height="168" fill="white"/>
<rect x="181.253" y="-63" width="1.3184" height="169" fill="white"/>
<rect x="194.477" y="-63" width="1.3184" height="169" fill="white"/>
<rect x="207.701" y="-63" width="1.3184" height="169" fill="white"/>
<rect x="220.925" y="-63" width="1.3184" height="167" fill="white"/>
<rect x="234.149" y="-63" width="1.3184" height="165" fill="white"/>
<rect x="247.373" y="-63" width="1.3184" height="161" fill="white"/>
<rect x="260.597" y="-63" width="1.3184" height="157" fill="white"/>
<rect x="273.821" y="-63" width="1.3184" height="151" fill="white"/>
<rect x="287.045" y="-63" width="1.3184" height="144" fill="white"/>
<rect x="300.269" y="-63" width="1.3184" height="136" fill="white"/>
<rect x="313.493" y="-63" width="1.3184" height="130" fill="white"/>
<rect x="326.717" y="-63" width="1.3184" height="125" fill="white"/>
<rect x="339.941" y="-63" width="1.3184" height="121" fill="white"/>
<rect x="353.165" y="-63" width="1.3184" height="118" fill="white"/>
<rect x="366.389" y="-63" width="1.3184" height="116" fill="white"/>
<rect x="379.613" y="-63" width="1.3184" height="115" fill="white"/>
<rect x="392.837" y="-63" width="1.3184" height="115" fill="white"/>
<rect x="406.061" y="-63" width="1.3184" height="116" fill="white"/>
<rect x="415.86" y="-48.4307" width="1.3184" height="103" fill="white"/>
<rect x="429.084" y="-48.4307" width="1.3184" height="105" fill="white"/>
<rect x="442.308" y="-48.4307" width="1.3184" height="109" fill="white"/>
<rect x="455.532" y="-48.4307" width="1.3184" height="113" fill="white"/>
<rect x="468.756" y="-48.4307" width="1.3184" height="119" fill="white"/>
<rect x="481.98" y="-48.4307" width="1.3184" height="125" fill="white"/>
<rect x="495.204" y="-48.4307" width="1.3184" height="131" fill="white"/>
<rect x="508.428" y="-48.4307" width="1.3184" height="137" fill="white"/>
<rect x="521.652" y="-48.4307" width="1.3184" height="143" fill="white"/>
<rect x="533.876" y="-48.4307" width="1.3184" height="148" fill="white"/>
<rect x="547.1" y="-48.4307" width="1.3184" height="152" fill="white"/>
<rect x="560.324" y="-48.4307" width="1.3184" height="155" fill="white"/>
<rect x="573.548" y="-48.4307" width="1.3184" height="157" fill="white"/>
<rect x="586.772" y="-48.4307" width="1.3184" height="158" fill="white"/>
<rect x="599.996" y="-48.4307" width="1.3184" height="159" fill="white"/>
<rect x="613.22" y="-48.4307" width="1.3184" height="158" fill="white"/>
<rect x="626.445" y="-48.4307" width="1.3184" height="157" fill="white"/>
<rect x="639.669" y="-48.4307" width="1.3184" height="155" fill="white"/>
<rect x="652.893" y="-48.4307" width="1.3184" height="151" fill="white"/>
<rect x="666.117" y="-48.4307" width="1.3184" height="147" fill="white"/>
<rect x="679.341" y="-48.4307" width="1.3184" height="142" fill="white"/>
<rect x="692.565" y="-48.4307" width="1.3184" height="135" fill="white"/>
<rect x="705.789" y="-48.4307" width="1.3184" height="129" fill="white"/>
<rect x="719.013" y="-48.4307" width="1.3184" height="124" fill="white"/>
<rect x="732.237" y="-48.4307" width="1.3184" height="120" fill="white"/>
<rect x="745.461" y="-48.4307" width="1.3184" height="117" fill="white"/>
<rect x="758.685" y="-48.4307" width="1.3184" height="115" fill="white"/>
<rect x="771.909" y="-48.4307" width="1.3184" height="114" fill="white"/>
<rect x="785.133" y="-48.4307" width="1.3184" height="114" fill="white"/>
<rect x="798.357" y="-48.4307" width="1.3184" height="114" fill="white"/>
<rect x="811.581" y="-48.4307" width="1.3184" height="116" fill="white"/>
<rect x="823.86" y="-48.4307" width="1.3184" height="118" fill="white"/>
<rect x="837.084" y="-48.4307" width="1.3184" height="121" fill="white"/>
<rect x="849.308" y="-48.4307" width="1.3184" height="125" fill="white"/>
<rect x="863.492" y="-48.4307" width="1.3184" height="131" fill="white"/>
<rect x="876.716" y="-48.4307" width="1.3184" height="137" fill="white"/>
<rect x="889.94" y="-48.4307" width="1.3184" height="143" fill="white"/>
<rect x="903.164" y="-48.4307" width="1.3184" height="150" fill="white"/>
<rect x="916.388" y="-48.4307" width="1.3184" height="155" fill="white"/>
<rect x="929.612" y="-48.4307" width="1.3184" height="160" fill="white"/>
<rect x="942.836" y="-48.4307" width="1.3184" height="163" fill="white"/>
<rect x="955.06" y="-48.4307" width="1.3184" height="165" fill="white"/>
<rect x="968.245" y="-48.4307" width="1.3184" height="165" fill="white"/>
<rect x="981.428" y="-48.4307" width="1.3184" height="165" fill="white"/>
<rect x="995.613" y="-48.4307" width="1.3184" height="164" fill="white"/>
<rect x="1008.84" y="-48.4307" width="1.3184" height="161" fill="white"/>
<rect x="1022.06" y="-48.4307" width="1.3184" height="158" fill="white"/>
<rect x="1035.28" y="-48.4307" width="1.3184" height="153" fill="white"/>
<rect x="1048.51" y="-48.4307" width="1.3184" height="147" fill="white"/>
<rect x="1061.73" y="-48.4307" width="1.3184" height="139" fill="white"/>
<rect x="1074.96" y="-48.4307" width="1.3184" height="129" fill="white"/>
<rect x="1088.18" y="-48.4307" width="1.3184" height="121" fill="white"/>
<rect x="1101.4" y="-48.4307" width="1.3184" height="114" fill="white"/>
<rect x="1114.63" y="-48.4307" width="1.3184" height="108" fill="white"/>
<rect x="1126.85" y="-48.4307" width="1.3184" height="105" fill="white"/>
<rect x="1140.08" y="-48.4307" width="1.3184" height="101" fill="white"/>
<rect x="1153.3" y="-48.4307" width="1.3184" height="100" fill="white"/>
<rect x="1166.52" y="-48.4307" width="1.3184" height="99" fill="white"/>
<rect x="1179.75" y="-48.4307" width="1.3184" height="99" fill="white"/>
<rect x="1192.97" y="-48.4307" width="1.3184" height="100" fill="white"/>
<rect x="1206.2" y="-48.4307" width="1.3184" height="103" fill="white"/>
<rect x="1219.42" y="-48.4307" width="1.3184" height="107" fill="white"/>
<rect x="1231.86" y="-48.4307" width="1.3184" height="112" fill="white"/>
<rect x="1245.08" y="-48.4307" width="1.3184" height="117" fill="white"/>
<rect x="1258.31" y="-48.4307" width="1.3184" height="124" fill="white"/>
<rect x="1271.53" y="-48.4307" width="1.3184" height="130" fill="white"/>
<rect x="1284.34" y="-48" width="1.3184" height="133" fill="white"/>
<rect x="1298.34" y="-48" width="1.3184" height="137" fill="white"/>
<rect x="1311.34" y="-48" width="1.3184" height="139" fill="white"/>
<rect x="1324.34" y="-48" width="1.3184" height="141" fill="white"/>
<rect x="1337.34" y="-48" width="1.3184" height="141" fill="white"/>
<rect x="1350.34" y="-48" width="1.3184" height="141" fill="white"/>
<rect x="1363.34" y="-48" width="1.3184" height="141" fill="white"/>
<rect x="1376.34" y="-48" width="1.3184" height="139" fill="white"/>
</g>
<defs>
<linearGradient id="paint0_linear_4131_24791" x1="0.659201" y1="0" x2="0.659201" y2="98" gradientUnits="userSpaceOnUse">
<stop offset="0.515625" stop-color="white"/>
<stop offset="1" stop-color="white" stop-opacity="0"/>
</linearGradient>
<linearGradient id="paint1_linear_4131_24791" x1="0.659201" y1="0" x2="0.659201" y2="90" gradientUnits="userSpaceOnUse">
<stop offset="0.515625" stop-color="white"/>
<stop offset="1" stop-color="white" stop-opacity="0"/>
</linearGradient>
<linearGradient id="paint2_linear_4131_24791" x1="0.659201" y1="0" x2="0.659201" y2="81" gradientUnits="userSpaceOnUse">
<stop offset="0.515625" stop-color="white"/>
<stop offset="1" stop-color="white" stop-opacity="0"/>
</linearGradient>
<linearGradient id="paint3_linear_4131_24791" x1="0.659201" y1="0" x2="0.659201" y2="73" gradientUnits="userSpaceOnUse">
<stop offset="0.515625" stop-color="white"/>
<stop offset="1" stop-color="white" stop-opacity="0"/>
</linearGradient>
<linearGradient id="paint4_linear_4131_24791" x1="0.659201" y1="0" x2="0.659201" y2="67" gradientUnits="userSpaceOnUse">
<stop offset="0.515625" stop-color="white"/>
<stop offset="1" stop-color="white" stop-opacity="0"/>
</linearGradient>
<linearGradient id="paint5_linear_4131_24791" x1="0.659201" y1="0" x2="0.659201" y2="59" gradientUnits="userSpaceOnUse">
<stop offset="0.515625" stop-color="white"/>
<stop offset="1" stop-color="white" stop-opacity="0"/>
</linearGradient>
<linearGradient id="paint6_linear_4131_24791" x1="0.659201" y1="0" x2="0.659201" y2="50" gradientUnits="userSpaceOnUse">
<stop offset="0.515625" stop-color="white"/>
<stop offset="1" stop-color="white" stop-opacity="0"/>
</linearGradient>
<linearGradient id="paint7_linear_4131_24791" x1="0.659201" y1="0" x2="0.659201" y2="44" gradientUnits="userSpaceOnUse">
<stop offset="0.515625" stop-color="white"/>
<stop offset="1" stop-color="white" stop-opacity="0"/>
</linearGradient>
<linearGradient id="paint8_linear_4131_24791" x1="0.659201" y1="0" x2="0.659201" y2="38" gradientUnits="userSpaceOnUse">
<stop offset="0.515625" stop-color="white"/>
<stop offset="1" stop-color="white" stop-opacity="0"/>
</linearGradient>
<linearGradient id="paint9_linear_4131_24791" x1="0.659201" y1="0" x2="0.659201" y2="35" gradientUnits="userSpaceOnUse">
<stop offset="0.515625" stop-color="white"/>
<stop offset="1" stop-color="white" stop-opacity="0"/>
</linearGradient>
<linearGradient id="paint10_linear_4131_24791" x1="0.659201" y1="0" x2="0.659201" y2="34" gradientUnits="userSpaceOnUse">
<stop offset="0.515625" stop-color="white"/>
<stop offset="1" stop-color="white" stop-opacity="0"/>
</linearGradient>
<linearGradient id="paint11_linear_4131_24791" x1="0.659201" y1="0" x2="0.659201" y2="36" gradientUnits="userSpaceOnUse">
<stop offset="0.515625" stop-color="white"/>
<stop offset="1" stop-color="white" stop-opacity="0"/>
</linearGradient>
<linearGradient id="paint12_linear_4131_24791" x1="0.659201" y1="0" x2="0.659201" y2="41" gradientUnits="userSpaceOnUse">
<stop offset="0.515625" stop-color="white"/>
<stop offset="1" stop-color="white" stop-opacity="0"/>
</linearGradient>
<linearGradient id="paint13_linear_4131_24791" x1="0.659201" y1="0" x2="0.659201" y2="49" gradientUnits="userSpaceOnUse">
<stop offset="0.515625" stop-color="white"/>
<stop offset="1" stop-color="white" stop-opacity="0"/>
</linearGradient>
<linearGradient id="paint14_linear_4131_24791" x1="0.659201" y1="0" x2="0.659201" y2="60" gradientUnits="userSpaceOnUse">
<stop offset="0.515625" stop-color="white"/>
<stop offset="1" stop-color="white" stop-opacity="0"/>
</linearGradient>
<linearGradient id="paint15_linear_4131_24791" x1="0.659201" y1="0" x2="0.659201" y2="70" gradientUnits="userSpaceOnUse">
<stop offset="0.515625" stop-color="white"/>
<stop offset="1" stop-color="white" stop-opacity="0"/>
</linearGradient>
<linearGradient id="paint16_linear_4131_24791" x1="0.659201" y1="0" x2="0.659201" y2="78" gradientUnits="userSpaceOnUse">
<stop offset="0.515625" stop-color="white"/>
<stop offset="1" stop-color="white" stop-opacity="0"/>
</linearGradient>
<linearGradient id="paint17_linear_4131_24791" x1="0.659201" y1="0" x2="0.659201" y2="86" gradientUnits="userSpaceOnUse">
<stop offset="0.515625" stop-color="white"/>
<stop offset="1" stop-color="white" stop-opacity="0"/>
</linearGradient>
<linearGradient id="paint18_linear_4131_24791" x1="0.659201" y1="0" x2="0.659201" y2="95" gradientUnits="userSpaceOnUse">
<stop offset="0.515625" stop-color="white"/>
<stop offset="1" stop-color="white" stop-opacity="0"/>
</linearGradient>
<linearGradient id="paint19_linear_4131_24791" x1="0.659201" y1="0" x2="0.659201" y2="103" gradientUnits="userSpaceOnUse">
<stop offset="0.515625" stop-color="white"/>
<stop offset="1" stop-color="white" stop-opacity="0"/>
</linearGradient>
<linearGradient id="paint20_linear_4131_24791" x1="0.659201" y1="0" x2="0.659201" y2="113" gradientUnits="userSpaceOnUse">
<stop offset="0.515625" stop-color="white"/>
<stop offset="1" stop-color="white" stop-opacity="0"/>
</linearGradient>
<linearGradient id="paint21_linear_4131_24791" x1="0.659201" y1="0" x2="0.659201" y2="120" gradientUnits="userSpaceOnUse">
<stop offset="0.515625" stop-color="white"/>
<stop offset="1" stop-color="white" stop-opacity="0"/>
</linearGradient>
<linearGradient id="paint22_linear_4131_24791" x1="0.659201" y1="0" x2="0.659201" y2="128" gradientUnits="userSpaceOnUse">
<stop offset="0.515625" stop-color="white"/>
<stop offset="1" stop-color="white" stop-opacity="0"/>
</linearGradient>
<linearGradient id="paint23_linear_4131_24791" x1="0.659201" y1="0" x2="0.659201" y2="134" gradientUnits="userSpaceOnUse">
<stop offset="0.515625" stop-color="white"/>
<stop offset="1" stop-color="white" stop-opacity="0"/>
</linearGradient>
<linearGradient id="paint24_linear_4131_24791" x1="0.659201" y1="0" x2="0.659201" y2="135" gradientUnits="userSpaceOnUse">
<stop offset="0.515625" stop-color="white"/>
<stop offset="1" stop-color="white" stop-opacity="0"/>
</linearGradient>
<linearGradient id="paint25_linear_4131_24791" x1="0.659201" y1="0" x2="0.659201" y2="137" gradientUnits="userSpaceOnUse">
<stop offset="0.515625" stop-color="white"/>
<stop offset="1" stop-color="white" stop-opacity="0"/>
</linearGradient>
<linearGradient id="paint26_linear_4131_24791" x1="0.659201" y1="0" x2="0.659201" y2="133" gradientUnits="userSpaceOnUse">
<stop offset="0.515625" stop-color="white"/>
<stop offset="1" stop-color="white" stop-opacity="0"/>
</linearGradient>
<linearGradient id="paint27_linear_4131_24791" x1="0.659201" y1="0" x2="0.659201" y2="128" gradientUnits="userSpaceOnUse">
<stop offset="0.515625" stop-color="white"/>
<stop offset="1" stop-color="white" stop-opacity="0"/>
</linearGradient>
<linearGradient id="paint28_linear_4131_24791" x1="0.659201" y1="0" x2="0.659201" y2="125" gradientUnits="userSpaceOnUse">
<stop offset="0.515625" stop-color="white"/>
<stop offset="1" stop-color="white" stop-opacity="0"/>
</linearGradient>
<linearGradient id="paint29_linear_4131_24791" x1="0.659201" y1="0" x2="0.659201" y2="117" gradientUnits="userSpaceOnUse">
<stop offset="0.515625" stop-color="white"/>
<stop offset="1" stop-color="white" stop-opacity="0"/>
</linearGradient>
<linearGradient id="paint30_linear_4131_24791" x1="0.659201" y1="0" x2="0.659201" y2="111" gradientUnits="userSpaceOnUse">
<stop offset="0.515625" stop-color="white"/>
<stop offset="1" stop-color="white" stop-opacity="0"/>
</linearGradient>
<linearGradient id="paint31_linear_4131_24791" x1="0.659201" y1="0" x2="0.659201" y2="105" gradientUnits="userSpaceOnUse">
<stop offset="0.515625" stop-color="white"/>
<stop offset="1" stop-color="white" stop-opacity="0"/>
</linearGradient>
<linearGradient id="paint32_linear_4131_24791" x1="0.659201" y1="0" x2="0.659201" y2="101" gradientUnits="userSpaceOnUse">
<stop offset="0.515625" stop-color="white"/>
<stop offset="1" stop-color="white" stop-opacity="0"/>
</linearGradient>
<linearGradient id="paint33_linear_4131_24791" x1="0.659201" y1="0" x2="0.659201" y2="93" gradientUnits="userSpaceOnUse">
<stop offset="0.515625" stop-color="white"/>
<stop offset="1" stop-color="white" stop-opacity="0"/>
</linearGradient>
<linearGradient id="paint34_linear_4131_24791" x1="0.659201" y1="0" x2="0.659201" y2="87" gradientUnits="userSpaceOnUse">
<stop offset="0.515625" stop-color="white"/>
<stop offset="1" stop-color="white" stop-opacity="0"/>
</linearGradient>
<linearGradient id="paint35_linear_4131_24791" x1="0.659201" y1="0" x2="0.659201" y2="80" gradientUnits="userSpaceOnUse">
<stop offset="0.515625" stop-color="white"/>
<stop offset="1" stop-color="white" stop-opacity="0"/>
</linearGradient>
<linearGradient id="paint36_linear_4131_24791" x1="0.659201" y1="0" x2="0.659201" y2="74" gradientUnits="userSpaceOnUse">
<stop offset="0.515625" stop-color="white"/>
<stop offset="1" stop-color="white" stop-opacity="0"/>
</linearGradient>
<linearGradient id="paint37_linear_4131_24791" x1="0.659201" y1="0" x2="0.659201" y2="70" gradientUnits="userSpaceOnUse">
<stop offset="0.515625" stop-color="white"/>
<stop offset="1" stop-color="white" stop-opacity="0"/>
</linearGradient>
<linearGradient id="paint38_linear_4131_24791" x1="0.659201" y1="0" x2="0.659201" y2="66" gradientUnits="userSpaceOnUse">
<stop offset="0.515625" stop-color="white"/>
<stop offset="1" stop-color="white" stop-opacity="0"/>
</linearGradient>
<linearGradient id="paint39_linear_4131_24791" x1="0.659201" y1="0" x2="0.659201" y2="64" gradientUnits="userSpaceOnUse">
<stop offset="0.515625" stop-color="white"/>
<stop offset="1" stop-color="white" stop-opacity="0"/>
</linearGradient>
<linearGradient id="paint40_linear_4131_24791" x1="0.659201" y1="0" x2="0.659201" y2="64" gradientUnits="userSpaceOnUse">
<stop offset="0.515625" stop-color="white"/>
<stop offset="1" stop-color="white" stop-opacity="0"/>
</linearGradient>
<linearGradient id="paint41_linear_4131_24791" x1="0.659201" y1="0" x2="0.659201" y2="65" gradientUnits="userSpaceOnUse">
<stop offset="0.515625" stop-color="white"/>
<stop offset="1" stop-color="white" stop-opacity="0"/>
</linearGradient>
<linearGradient id="paint42_linear_4131_24791" x1="0.659201" y1="0" x2="0.659201" y2="68" gradientUnits="userSpaceOnUse">
<stop offset="0.515625" stop-color="white"/>
<stop offset="1" stop-color="white" stop-opacity="0"/>
</linearGradient>
<linearGradient id="paint43_linear_4131_24791" x1="0.659201" y1="0" x2="0.659201" y2="73" gradientUnits="userSpaceOnUse">
<stop offset="0.515625" stop-color="white"/>
<stop offset="1" stop-color="white" stop-opacity="0"/>
</linearGradient>
<linearGradient id="paint44_linear_4131_24791" x1="0.659201" y1="0" x2="0.659201" y2="77" gradientUnits="userSpaceOnUse">
<stop offset="0.515625" stop-color="white"/>
<stop offset="1" stop-color="white" stop-opacity="0"/>
</linearGradient>
<linearGradient id="paint45_linear_4131_24791" x1="0.659201" y1="0" x2="0.659201" y2="80" gradientUnits="userSpaceOnUse">
<stop offset="0.515625" stop-color="white"/>
<stop offset="1" stop-color="white" stop-opacity="0"/>
</linearGradient>
<linearGradient id="paint46_linear_4131_24791" x1="0.659201" y1="0" x2="0.659201" y2="84" gradientUnits="userSpaceOnUse">
<stop offset="0.515625" stop-color="white"/>
<stop offset="1" stop-color="white" stop-opacity="0"/>
</linearGradient>
<linearGradient id="paint47_linear_4131_24791" x1="0.659201" y1="0" x2="0.659201" y2="86" gradientUnits="userSpaceOnUse">
<stop offset="0.515625" stop-color="white"/>
<stop offset="1" stop-color="white" stop-opacity="0"/>
</linearGradient>
<linearGradient id="paint48_linear_4131_24791" x1="0.659201" y1="0" x2="0.659201" y2="90" gradientUnits="userSpaceOnUse">
<stop offset="0.515625" stop-color="white"/>
<stop offset="1" stop-color="white" stop-opacity="0"/>
</linearGradient>
<linearGradient id="paint49_linear_4131_24791" x1="0.659201" y1="0" x2="0.659201" y2="96" gradientUnits="userSpaceOnUse">
<stop offset="0.515625" stop-color="white"/>
<stop offset="1" stop-color="white" stop-opacity="0"/>
</linearGradient>
<linearGradient id="paint50_linear_4131_24791" x1="0.659201" y1="0" x2="0.659201" y2="98" gradientUnits="userSpaceOnUse">
<stop offset="0.515625" stop-color="white"/>
<stop offset="1" stop-color="white" stop-opacity="0"/>
</linearGradient>
<linearGradient id="paint51_linear_4131_24791" x1="0.659201" y1="0" x2="0.659201" y2="102" gradientUnits="userSpaceOnUse">
<stop offset="0.515625" stop-color="white"/>
<stop offset="1" stop-color="white" stop-opacity="0"/>
</linearGradient>
<linearGradient id="paint52_linear_4131_24791" x1="0.659201" y1="0" x2="0.659201" y2="107" gradientUnits="userSpaceOnUse">
<stop offset="0.515625" stop-color="white"/>
<stop offset="1" stop-color="white" stop-opacity="0"/>
</linearGradient>
<linearGradient id="paint53_linear_4131_24791" x1="0.659201" y1="0" x2="0.659201" y2="109" gradientUnits="userSpaceOnUse">
<stop offset="0.515625" stop-color="white"/>
<stop offset="1" stop-color="white" stop-opacity="0"/>
</linearGradient>
<linearGradient id="paint54_linear_4131_24791" x1="0.659201" y1="0" x2="0.659201" y2="109" gradientUnits="userSpaceOnUse">
<stop offset="0.515625" stop-color="white"/>
<stop offset="1" stop-color="white" stop-opacity="0"/>
</linearGradient>
<linearGradient id="paint55_linear_4131_24791" x1="0.659201" y1="0" x2="0.659201" y2="107" gradientUnits="userSpaceOnUse">
<stop offset="0.515625" stop-color="white"/>
<stop offset="1" stop-color="white" stop-opacity="0"/>
</linearGradient>
<linearGradient id="paint56_linear_4131_24791" x1="0.659201" y1="0" x2="0.659201" y2="103" gradientUnits="userSpaceOnUse">
<stop offset="0.515625" stop-color="white"/>
<stop offset="1" stop-color="white" stop-opacity="0"/>
</linearGradient>
<linearGradient id="paint57_linear_4131_24791" x1="0.659201" y1="0" x2="0.659201" y2="97" gradientUnits="userSpaceOnUse">
<stop offset="0.515625" stop-color="white"/>
<stop offset="1" stop-color="white" stop-opacity="0"/>
</linearGradient>
<linearGradient id="paint58_linear_4131_24791" x1="0.659201" y1="0" x2="0.659201" y2="91" gradientUnits="userSpaceOnUse">
<stop offset="0.515625" stop-color="white"/>
<stop offset="1" stop-color="white" stop-opacity="0"/>
</linearGradient>
<linearGradient id="paint59_linear_4131_24791" x1="0.659201" y1="0" x2="0.659201" y2="83" gradientUnits="userSpaceOnUse">
<stop offset="0.515625" stop-color="white"/>
<stop offset="1" stop-color="white" stop-opacity="0"/>
</linearGradient>
<linearGradient id="paint60_linear_4131_24791" x1="0.659201" y1="0" x2="0.659201" y2="74" gradientUnits="userSpaceOnUse">
<stop offset="0.515625" stop-color="white"/>
<stop offset="1" stop-color="white" stop-opacity="0"/>
</linearGradient>
<linearGradient id="paint61_linear_4131_24791" x1="0.659201" y1="0" x2="0.659201" y2="70" gradientUnits="userSpaceOnUse">
<stop offset="0.515625" stop-color="white"/>
<stop offset="1" stop-color="white" stop-opacity="0"/>
</linearGradient>
<linearGradient id="paint62_linear_4131_24791" x1="0.659201" y1="0" x2="0.659201" y2="64" gradientUnits="userSpaceOnUse">
<stop offset="0.515625" stop-color="white"/>
<stop offset="1" stop-color="white" stop-opacity="0"/>
</linearGradient>
<linearGradient id="paint63_linear_4131_24791" x1="0.659201" y1="0" x2="0.659201" y2="58" gradientUnits="userSpaceOnUse">
<stop offset="0.515625" stop-color="white"/>
<stop offset="1" stop-color="white" stop-opacity="0"/>
</linearGradient>
<linearGradient id="paint64_linear_4131_24791" x1="0.659201" y1="0" x2="0.659201" y2="49" gradientUnits="userSpaceOnUse">
<stop offset="0.515625" stop-color="white"/>
<stop offset="1" stop-color="white" stop-opacity="0"/>
</linearGradient>
<linearGradient id="paint65_linear_4131_24791" x1="0.659201" y1="0" x2="0.659201" y2="43" gradientUnits="userSpaceOnUse">
<stop offset="0.515625" stop-color="white"/>
<stop offset="1" stop-color="white" stop-opacity="0"/>
</linearGradient>
<linearGradient id="paint66_linear_4131_24791" x1="0.659201" y1="0" x2="0.659201" y2="36" gradientUnits="userSpaceOnUse">
<stop offset="0.515625" stop-color="white"/>
<stop offset="1" stop-color="white" stop-opacity="0"/>
</linearGradient>
<linearGradient id="paint67_linear_4131_24791" x1="0.659201" y1="0" x2="0.659201" y2="32" gradientUnits="userSpaceOnUse">
<stop offset="0.515625" stop-color="white"/>
<stop offset="1" stop-color="white" stop-opacity="0"/>
</linearGradient>
<linearGradient id="paint68_linear_4131_24791" x1="0.659201" y1="0" x2="0.659201" y2="26" gradientUnits="userSpaceOnUse">
<stop offset="0.515625" stop-color="white"/>
<stop offset="1" stop-color="white" stop-opacity="0"/>
</linearGradient>
<linearGradient id="paint69_linear_4131_24791" x1="0.659201" y1="0" x2="0.659201" y2="24" gradientUnits="userSpaceOnUse">
<stop offset="0.515625" stop-color="white"/>
<stop offset="1" stop-color="white" stop-opacity="0"/>
</linearGradient>
<linearGradient id="paint70_linear_4131_24791" x1="0.659201" y1="0" x2="0.659201" y2="24" gradientUnits="userSpaceOnUse">
<stop offset="0.515625" stop-color="white"/>
<stop offset="1" stop-color="white" stop-opacity="0"/>
</linearGradient>
<linearGradient id="paint71_linear_4131_24791" x1="0.659201" y1="0" x2="0.659201" y2="26" gradientUnits="userSpaceOnUse">
<stop offset="0.515625" stop-color="white"/>
<stop offset="1" stop-color="white" stop-opacity="0"/>
</linearGradient>
<linearGradient id="paint72_linear_4131_24791" x1="0.659201" y1="0" x2="0.659201" y2="31" gradientUnits="userSpaceOnUse">
<stop offset="0.515625" stop-color="white"/>
<stop offset="1" stop-color="white" stop-opacity="0"/>
</linearGradient>
<linearGradient id="paint73_linear_4131_24791" x1="0.659201" y1="0" x2="0.659201" y2="40" gradientUnits="userSpaceOnUse">
<stop offset="0.515625" stop-color="white"/>
<stop offset="1" stop-color="white" stop-opacity="0"/>
</linearGradient>
<linearGradient id="paint74_linear_4131_24791" x1="0.659201" y1="0" x2="0.659201" y2="46" gradientUnits="userSpaceOnUse">
<stop offset="0.515625" stop-color="white"/>
<stop offset="1" stop-color="white" stop-opacity="0"/>
</linearGradient>
<linearGradient id="paint75_linear_4131_24791" x1="0.659201" y1="0" x2="0.659201" y2="49" gradientUnits="userSpaceOnUse">
<stop offset="0.515625" stop-color="white"/>
<stop offset="1" stop-color="white" stop-opacity="0"/>
</linearGradient>
<linearGradient id="paint76_linear_4131_24791" x1="0.659201" y1="0" x2="0.659201" y2="55" gradientUnits="userSpaceOnUse">
<stop offset="0.515625" stop-color="white"/>
<stop offset="1" stop-color="white" stop-opacity="0"/>
</linearGradient>
<linearGradient id="paint77_linear_4131_24791" x1="0.659201" y1="0" x2="0.659201" y2="64" gradientUnits="userSpaceOnUse">
<stop offset="0.515625" stop-color="white"/>
<stop offset="1" stop-color="white" stop-opacity="0"/>
</linearGradient>
<linearGradient id="paint78_linear_4131_24791" x1="0.659201" y1="0" x2="0.659201" y2="71" gradientUnits="userSpaceOnUse">
<stop offset="0.515625" stop-color="white"/>
<stop offset="1" stop-color="white" stop-opacity="0"/>
</linearGradient>
<linearGradient id="paint79_linear_4131_24791" x1="0.659201" y1="0" x2="0.659201" y2="78" gradientUnits="userSpaceOnUse">
<stop offset="0.515625" stop-color="white"/>
<stop offset="1" stop-color="white" stop-opacity="0"/>
</linearGradient>
<linearGradient id="paint80_linear_4131_24791" x1="0.659201" y1="0" x2="0.659201" y2="86" gradientUnits="userSpaceOnUse">
<stop offset="0.515625" stop-color="white"/>
<stop offset="1" stop-color="white" stop-opacity="0"/>
</linearGradient>
<linearGradient id="paint81_linear_4131_24791" x1="0.659201" y1="0" x2="0.659201" y2="92" gradientUnits="userSpaceOnUse">
<stop offset="0.515625" stop-color="white"/>
<stop offset="1" stop-color="white" stop-opacity="0"/>
</linearGradient>
<linearGradient id="paint82_linear_4131_24791" x1="0.659201" y1="0" x2="0.659201" y2="96" gradientUnits="userSpaceOnUse">
<stop offset="0.515625" stop-color="white"/>
<stop offset="1" stop-color="white" stop-opacity="0"/>
</linearGradient>
<linearGradient id="paint83_linear_4131_24791" x1="0.659201" y1="0" x2="0.659201" y2="102" gradientUnits="userSpaceOnUse">
<stop offset="0.515625" stop-color="white"/>
<stop offset="1" stop-color="white" stop-opacity="0"/>
</linearGradient>
<linearGradient id="paint84_linear_4131_24791" x1="0.659201" y1="0" x2="0.659201" y2="100" gradientUnits="userSpaceOnUse">
<stop offset="0.515625" stop-color="white"/>
<stop offset="1" stop-color="white" stop-opacity="0"/>
</linearGradient>
<linearGradient id="paint85_linear_4131_24791" x1="0.659201" y1="0" x2="0.659201" y2="97" gradientUnits="userSpaceOnUse">
<stop offset="0.515625" stop-color="white"/>
<stop offset="1" stop-color="white" stop-opacity="0"/>
</linearGradient>
<linearGradient id="paint86_linear_4131_24791" x1="0.659201" y1="0" x2="0.659201" y2="93" gradientUnits="userSpaceOnUse">
<stop offset="0.515625" stop-color="white"/>
<stop offset="1" stop-color="white" stop-opacity="0"/>
</linearGradient>
<linearGradient id="paint87_linear_4131_24791" x1="0.659201" y1="0" x2="0.659201" y2="88" gradientUnits="userSpaceOnUse">
<stop offset="0.515625" stop-color="white"/>
<stop offset="1" stop-color="white" stop-opacity="0"/>
</linearGradient>
<linearGradient id="paint88_linear_4131_24791" x1="0.659201" y1="0" x2="0.659201" y2="82" gradientUnits="userSpaceOnUse">
<stop offset="0.515625" stop-color="white"/>
<stop offset="1" stop-color="white" stop-opacity="0"/>
</linearGradient>
<linearGradient id="paint89_linear_4131_24791" x1="0.659201" y1="0" x2="0.659201" y2="77" gradientUnits="userSpaceOnUse">
<stop offset="0.515625" stop-color="white"/>
<stop offset="1" stop-color="white" stop-opacity="0"/>
</linearGradient>
<linearGradient id="paint90_linear_4131_24791" x1="0.659201" y1="0" x2="0.659201" y2="72" gradientUnits="userSpaceOnUse">
<stop offset="0.515625" stop-color="white"/>
<stop offset="1" stop-color="white" stop-opacity="0"/>
</linearGradient>
<linearGradient id="paint91_linear_4131_24791" x1="0.659201" y1="0" x2="0.659201" y2="65" gradientUnits="userSpaceOnUse">
<stop offset="0.515625" stop-color="white"/>
<stop offset="1" stop-color="white" stop-opacity="0"/>
</linearGradient>
<linearGradient id="paint92_linear_4131_24791" x1="0.659201" y1="0" x2="0.659201" y2="61" gradientUnits="userSpaceOnUse">
<stop offset="0.515625" stop-color="white"/>
<stop offset="1" stop-color="white" stop-opacity="0"/>
</linearGradient>
<linearGradient id="paint93_linear_4131_24791" x1="0.659201" y1="0" x2="0.659201" y2="56" gradientUnits="userSpaceOnUse">
<stop offset="0.515625" stop-color="white"/>
<stop offset="1" stop-color="white" stop-opacity="0"/>
</linearGradient>
<linearGradient id="paint94_linear_4131_24791" x1="0.659201" y1="0" x2="0.659201" y2="49" gradientUnits="userSpaceOnUse">
<stop offset="0.515625" stop-color="white"/>
<stop offset="1" stop-color="white" stop-opacity="0"/>
</linearGradient>
<linearGradient id="paint95_linear_4131_24791" x1="0.659201" y1="0" x2="0.659201" y2="45" gradientUnits="userSpaceOnUse">
<stop offset="0.515625" stop-color="white"/>
<stop offset="1" stop-color="white" stop-opacity="0"/>
</linearGradient>
<linearGradient id="paint96_linear_4131_24791" x1="0.659201" y1="0" x2="0.659201" y2="43" gradientUnits="userSpaceOnUse">
<stop offset="0.515625" stop-color="white"/>
<stop offset="1" stop-color="white" stop-opacity="0"/>
</linearGradient>
<linearGradient id="paint97_linear_4131_24791" x1="0.659201" y1="0" x2="0.659201" y2="41" gradientUnits="userSpaceOnUse">
<stop offset="0.515625" stop-color="white"/>
<stop offset="1" stop-color="white" stop-opacity="0"/>
</linearGradient>
<linearGradient id="paint98_linear_4131_24791" x1="0.659201" y1="0" x2="0.659201" y2="41" gradientUnits="userSpaceOnUse">
<stop offset="0.515625" stop-color="white"/>
<stop offset="1" stop-color="white" stop-opacity="0"/>
</linearGradient>
<linearGradient id="paint99_linear_4131_24791" x1="0.659201" y1="0" x2="0.659201" y2="44" gradientUnits="userSpaceOnUse">
<stop offset="0.515625" stop-color="white"/>
<stop offset="1" stop-color="white" stop-opacity="0"/>
</linearGradient>
<linearGradient id="paint100_linear_4131_24791" x1="0.659201" y1="0" x2="0.659201" y2="49" gradientUnits="userSpaceOnUse">
<stop offset="0.515625" stop-color="white"/>
<stop offset="1" stop-color="white" stop-opacity="0"/>
</linearGradient>
<linearGradient id="paint101_linear_4131_24791" x1="0.659201" y1="0" x2="0.659201" y2="55" gradientUnits="userSpaceOnUse">
<stop offset="0.515625" stop-color="white"/>
<stop offset="1" stop-color="white" stop-opacity="0"/>
</linearGradient>
<linearGradient id="paint102_linear_4131_24791" x1="0.659201" y1="0" x2="0.659201" y2="65" gradientUnits="userSpaceOnUse">
<stop offset="0.515625" stop-color="white"/>
<stop offset="1" stop-color="white" stop-opacity="0"/>
</linearGradient>
<linearGradient id="paint103_linear_4131_24791" x1="0.659201" y1="0" x2="0.659201" y2="75" gradientUnits="userSpaceOnUse">
<stop offset="0.515625" stop-color="white"/>
<stop offset="1" stop-color="white" stop-opacity="0"/>
</linearGradient>
<linearGradient id="paint104_linear_4131_24791" x1="0.659201" y1="0" x2="0.659201" y2="87" gradientUnits="userSpaceOnUse">
<stop offset="0.515625" stop-color="white"/>
<stop offset="1" stop-color="white" stop-opacity="0"/>
</linearGradient>
<clipPath id="clip0_4131_24791">
<rect width="1382" height="119" fill="white" transform="translate(1)"/>
</clipPath>
</defs>
</svg>
