<svg width="61" height="55" viewBox="0 0 61 55" fill="none" xmlns="http://www.w3.org/2000/svg">
<g filter="url(#filter0_i_11_19)">
<path d="M13.5 38V14.7273H19.8182V24.1364H20.1364L27.1364 14.7273H34.5L26.6364 25.0909L34.6818 38H27.1364L21.9091 29.2727L19.8182 32V38H13.5ZM39.875 38.3636C38.9962 38.3636 38.2424 38.0568 37.6136 37.4432C36.9924 36.822 36.6856 36.0682 36.6932 35.1818C36.6856 34.3182 36.9924 33.5795 37.6136 32.9659C38.2424 32.3523 38.9962 32.0455 39.875 32.0455C40.7083 32.0455 41.4432 32.3523 42.0795 32.9659C42.7235 33.5795 43.0492 34.3182 43.0568 35.1818C43.0492 35.7727 42.8939 36.3106 42.5909 36.7955C42.2955 37.2727 41.9091 37.6553 41.4318 37.9432C40.9545 38.2235 40.4356 38.3636 39.875 38.3636Z" fill="#EA4766"/>
</g>
<path d="M13.5 38H13.3V38.2H13.5V38ZM13.5 14.7273V14.5273H13.3V14.7273H13.5ZM19.8182 14.7273H20.0182V14.5273H19.8182V14.7273ZM19.8182 24.1364H19.6182V24.3364H19.8182V24.1364ZM20.1364 24.1364V24.3364H20.2368L20.2968 24.2557L20.1364 24.1364ZM27.1364 14.7273V14.5273H27.0359L26.9759 14.6079L27.1364 14.7273ZM34.5 14.7273L34.6593 14.8482L34.9028 14.5273H34.5V14.7273ZM26.6364 25.0909L26.477 24.97L26.3938 25.0798L26.4666 25.1967L26.6364 25.0909ZM34.6818 38V38.2H35.0421L34.8516 37.8942L34.6818 38ZM27.1364 38L26.9648 38.1028L27.023 38.2H27.1364V38ZM21.9091 29.2727L22.0807 29.17L21.9294 28.9175L21.7504 29.151L21.9091 29.2727ZM19.8182 32L19.6595 31.8783L19.6182 31.9322V32H19.8182ZM19.8182 38V38.2H20.0182V38H19.8182ZM13.7 38V14.7273H13.3V38H13.7ZM13.5 14.9273H19.8182V14.5273H13.5V14.9273ZM19.6182 14.7273V24.1364H20.0182V14.7273H19.6182ZM19.8182 24.3364H20.1364V23.9364H19.8182V24.3364ZM20.2968 24.2557L27.2968 14.8467L26.9759 14.6079L19.9759 24.017L20.2968 24.2557ZM27.1364 14.9273H34.5V14.5273H27.1364V14.9273ZM34.3407 14.6064L26.477 24.97L26.7957 25.2118L34.6593 14.8482L34.3407 14.6064ZM26.4666 25.1967L34.5121 38.1058L34.8516 37.8942L26.8061 24.9851L26.4666 25.1967ZM34.6818 37.8H27.1364V38.2H34.6818V37.8ZM27.3079 37.8972L22.0807 29.17L21.7375 29.3755L26.9648 38.1028L27.3079 37.8972ZM21.7504 29.151L19.6595 31.8783L19.9769 32.1217L22.0678 29.3944L21.7504 29.151ZM19.6182 32V38H20.0182V32H19.6182ZM19.8182 37.8H13.5V38.2H19.8182V37.8ZM37.6136 37.4432L37.4722 37.5846L37.474 37.5863L37.6136 37.4432ZM36.6932 35.1818L36.8932 35.1835L36.8932 35.1801L36.6932 35.1818ZM37.6136 32.9659L37.4739 32.8228L37.4731 32.8236L37.6136 32.9659ZM42.0795 32.9659L41.9407 33.1099L41.9416 33.1107L42.0795 32.9659ZM43.0568 35.1818L43.2568 35.1844L43.2568 35.1801L43.0568 35.1818ZM42.5909 36.7955L42.4213 36.6895L42.4209 36.6902L42.5909 36.7955ZM41.4318 37.9432L41.5331 38.1157L41.5351 38.1144L41.4318 37.9432ZM39.875 38.1636C39.0484 38.1636 38.3447 37.8772 37.7533 37.3L37.474 37.5863C38.1401 38.2364 38.944 38.5636 39.875 38.5636V38.1636ZM37.7551 37.3018C37.1722 36.7189 36.8861 36.0168 36.8932 35.1835L36.4932 35.1801C36.4852 36.1196 36.8127 36.9251 37.4722 37.5846L37.7551 37.3018ZM36.8932 35.1801C36.8861 34.3712 37.171 33.6843 37.7542 33.1082L37.4731 32.8236C36.8139 33.4748 36.4851 34.2652 36.4932 35.1836L36.8932 35.1801ZM37.7533 33.109C38.3447 32.5319 39.0484 32.2455 39.875 32.2455V31.8455C38.944 31.8455 38.1401 32.1727 37.474 32.8228L37.7533 33.109ZM39.875 32.2455C40.6532 32.2455 41.3391 32.5298 41.9407 33.1099L42.2184 32.8219C41.5472 32.1748 40.7635 31.8455 39.875 31.8455V32.2455ZM41.9416 33.1107C42.5477 33.6883 42.8497 34.3758 42.8568 35.1836L43.2568 35.1801C43.2487 34.2605 42.8993 33.4708 42.2175 32.8211L41.9416 33.1107ZM42.8568 35.1793C42.8497 35.7348 42.7043 36.2367 42.4213 36.6895L42.7605 36.9015C43.0836 36.3845 43.2488 35.8106 43.2568 35.1844L42.8568 35.1793ZM42.4209 36.6902C42.142 37.1407 41.7784 37.5006 41.3285 37.7719L41.5351 38.1144C42.0398 37.8101 42.4489 37.4048 42.761 36.9007L42.4209 36.6902ZM41.3305 37.7707C40.8844 38.0328 40.4005 38.1636 39.875 38.1636V38.5636C40.4707 38.5636 41.0247 38.4142 41.5331 38.1156L41.3305 37.7707Z" fill="#BD364D"/>
<defs>
<filter id="filter0_i_11_19" x="13.5" y="14.7273" width="29.5568" height="27.6364" filterUnits="userSpaceOnUse" color-interpolation-filters="sRGB">
<feFlood flood-opacity="0" result="BackgroundImageFix"/>
<feBlend mode="normal" in="SourceGraphic" in2="BackgroundImageFix" result="shape"/>
<feColorMatrix in="SourceAlpha" type="matrix" values="0 0 0 0 0 0 0 0 0 0 0 0 0 0 0 0 0 0 127 0" result="hardAlpha"/>
<feOffset dy="4"/>
<feGaussianBlur stdDeviation="2"/>
<feComposite in2="hardAlpha" operator="arithmetic" k2="-1" k3="1"/>
<feColorMatrix type="matrix" values="0 0 0 0 0 0 0 0 0 0 0 0 0 0 0 0 0 0 0.25 0"/>
<feBlend mode="normal" in2="shape" result="effect1_innerShadow_11_19"/>
</filter>
</defs>
</svg>
